<?xml version="1.0" encoding="UTF-8"?><svg id="b" xmlns="http://www.w3.org/2000/svg" viewBox="0 0 55 55"><defs><style>.d{stroke-width:0px;}</style></defs><g id="c"><path class="d" d="m27.5,48.4c-3.03,0-5.5-2.47-5.5-5.5s2.47-5.5,5.5-5.5,5.5,2.47,5.5,5.5-2.47,5.5-5.5,5.5Zm0-8.8c-1.82,0-3.3,1.48-3.3,3.3s1.48,3.3,3.3,3.3,3.3-1.48,3.3-3.3-1.48-3.3-3.3-3.3Z"/><path class="d" d="m34.1,55h-13.2c-.61,0-1.1-.49-1.1-1.1v-2.2c0-3.03,2.47-5.5,5.5-5.5h4.4c3.03,0,5.5,2.47,5.5,5.5v2.2c0,.61-.49,1.1-1.1,1.1Zm-12.1-2.2h11v-1.1c0-1.82-1.48-3.3-3.3-3.3h-4.4c-1.82,0-3.3,1.48-3.3,3.3v1.1Z"/><path class="d" d="m27.5,11c-3.03,0-5.5-2.47-5.5-5.5S24.47,0,27.5,0s5.5,2.47,5.5,5.5-2.47,5.5-5.5,5.5Zm0-8.8c-1.82,0-3.3,1.48-3.3,3.3s1.48,3.3,3.3,3.3,3.3-1.48,3.3-3.3-1.48-3.3-3.3-3.3Z"/><path class="d" d="m34.1,17.6h-13.2c-.61,0-1.1-.49-1.1-1.1v-2.2c0-3.03,2.47-5.5,5.5-5.5h4.4c3.03,0,5.5,2.47,5.5,5.5v2.2c0,.61-.49,1.1-1.1,1.1Zm-12.1-2.2h11v-1.1c0-1.82-1.48-3.3-3.3-3.3h-4.4c-1.82,0-3.3,1.48-3.3,3.3v1.1Z"/><path class="d" d="m47.3,29.7c-3.03,0-5.5-2.47-5.5-5.5s2.47-5.5,5.5-5.5,5.5,2.47,5.5,5.5-2.47,5.5-5.5,5.5Zm0-8.8c-1.82,0-3.3,1.48-3.3,3.3s1.48,3.3,3.3,3.3,3.3-1.48,3.3-3.3-1.48-3.3-3.3-3.3Z"/><path class="d" d="m53.9,36.3h-13.2c-.61,0-1.1-.49-1.1-1.1v-2.2c0-3.03,2.47-5.5,5.5-5.5h4.4c3.03,0,5.5,2.47,5.5,5.5v2.2c0,.61-.49,1.1-1.1,1.1Zm-12.1-2.2h11v-1.1c0-1.82-1.48-3.3-3.3-3.3h-4.4c-1.82,0-3.3,1.48-3.3,3.3v1.1Z"/><path class="d" d="m7.7,29.7c-3.03,0-5.5-2.47-5.5-5.5s2.47-5.5,5.5-5.5,5.5,2.47,5.5,5.5-2.47,5.5-5.5,5.5Zm0-8.8c-1.82,0-3.3,1.48-3.3,3.3s1.48,3.3,3.3,3.3,3.3-1.48,3.3-3.3-1.48-3.3-3.3-3.3Z"/><path class="d" d="m14.3,36.3H1.1c-.61,0-1.1-.49-1.1-1.1v-2.2c0-3.03,2.47-5.5,5.5-5.5h4.4c3.03,0,5.5,2.47,5.5,5.5v2.2c0,.61-.49,1.1-1.1,1.1Zm-12.1-2.2h11v-1.1c0-1.82-1.48-3.3-3.3-3.3h-4.4c-1.82,0-3.3,1.48-3.3,3.3v1.1Z"/><path class="d" d="m37.27,48.32c-.4,0-.79-.22-.99-.61-.27-.54-.05-1.2.5-1.47,3.31-1.64,6.14-4.15,8.18-7.24.33-.51,1.02-.65,1.52-.31.51.33.65,1.02.31,1.52-2.25,3.42-5.38,6.18-9.04,8-.16.08-.32.12-.49.12Z"/><path class="d" d="m17.74,48.32c-.16,0-.33-.04-.49-.12-3.66-1.82-6.79-4.58-9.04-8-.33-.51-.2-1.19.31-1.52.51-.33,1.19-.2,1.52.31,2.04,3.09,4.87,5.6,8.19,7.24.54.27.77.93.5,1.47-.19.39-.58.61-.99.61Z"/><path class="d" d="m9.05,16.6c-.21,0-.41-.06-.6-.18-.51-.33-.65-1.01-.32-1.52,2.52-3.86,6.08-6.86,10.31-8.66.56-.24,1.21.02,1.44.58.24.56-.02,1.21-.58,1.44-3.83,1.63-7.05,4.34-9.33,7.84-.21.32-.56.5-.92.5Z"/><path class="d" d="m45.94,16.6c-.36,0-.71-.18-.92-.5-2.28-3.49-5.5-6.2-9.33-7.83-.56-.24-.82-.88-.58-1.44.24-.56.88-.82,1.44-.58,4.23,1.8,7.79,4.8,10.31,8.66.33.51.19,1.19-.32,1.52-.19.12-.39.18-.6.18Z"/></g></svg>