<?xml version="1.0" encoding="UTF-8"?><svg id="b" xmlns="http://www.w3.org/2000/svg" viewBox="0 0 99.04 124.48"><defs><style>.d,.e,.f{stroke-width:0px;}.g{opacity:.13;}.e{fill:#fff;}.f{fill:#acd4f7;}</style></defs><g id="c"><path class="e" d="m92.85,69.99c5.59-12.77,6.51-27.74,1.46-40.74-5.05-13-16.28-23.68-29.81-27.05-5.68-1.42-11.62-1.57-17.46-1.17-5.38.37-10.76,1.22-15.86,3-12.09,4.21-22.19,13.8-27.02,25.66C-.68,41.53-.15,55.45,5.2,65.92c1.36,1.74,2.72,3.49,4.08,5.23,4.79-5.76,1.17-14.25,0-21.65-1.89-11.9,3.76-24.31,13.06-31.97,9.3-7.66,21.77-10.98,33.79-10.27,20.95,1.24,31.52,21.6,34.09,32.25,1.97,8.14-.38,16.62-2.34,24.77-.34,1.42-.67,2.95-.17,4.33.5,1.38,2.16,2.44,5.14,1.38Z"/><path class="d" d="m9.29,71.98h-.01c-.25,0-.49-.12-.64-.32l-4.08-5.23s-.06-.09-.09-.13C-1.07,55.48-1.49,41.32,3.39,29.36,8.31,17.29,18.59,7.52,30.9,3.24c4.65-1.62,9.91-2.61,16.07-3.04,6.81-.47,12.61-.08,17.72,1.19,13.44,3.35,25.08,13.91,30.38,27.56,4.97,12.81,4.44,27.89-1.47,41.38-.09.21-.27.37-.48.45-3.61,1.29-5.6-.21-6.2-1.88-.56-1.55-.25-3.16.15-4.8l.41-1.7c1.83-7.52,3.72-15.3,1.93-22.69-2.52-10.4-12.72-30.4-33.33-31.61-12.44-.73-24.55,2.94-33.22,10.08-9.52,7.84-14.53,20.09-12.76,31.2.25,1.6.64,3.31,1.01,4.96,1.38,6.17,2.82,12.55-1.18,17.36-.16.19-.39.3-.64.3Zm83.56-2h0,0Zm-86.94-4.51l3.36,4.3c2.68-4.11,1.43-9.69.22-15.09-.38-1.67-.76-3.4-1.03-5.06-1.85-11.68,3.39-24.53,13.35-32.74,8.99-7.41,21.52-11.22,34.37-10.46,21.58,1.28,32.23,22.07,34.85,32.88,1.88,7.78-.06,15.76-1.93,23.47l-.41,1.69c-.35,1.44-.6,2.73-.2,3.85.34.95,1.5,1.68,3.74.99,5.6-13,6.07-27.48,1.3-39.77-5.11-13.15-16.31-23.33-29.23-26.55-4.94-1.23-10.56-1.6-17.2-1.14-6.02.42-11.13,1.38-15.64,2.95-11.87,4.13-21.78,13.55-26.53,25.18C.24,41.49.62,55.08,5.91,65.47Z"/><path class="e" d="m8.24,57.01c3.79-3.27,9.81-2.93,13.27.75,3.3,3.51,3.97,8.89,5.31,13.69.99,3.53,2.43,6.9,4.26,10,1.53,2.58,3.34,4.99,4.56,7.76,1.23,2.77,1.83,6.06.79,8.91-1.33,3.67-5.21,5.77-8.83,5.48-3.62-.29-6.9-2.6-9.3-5.56s-4.01-6.56-5.53-10.15c-4.14-9.76-7.79-20.81-4.54-30.88Z"/><path class="d" d="m28.29,104.46c-.25,0-.5,0-.75-.03-3.54-.28-7.05-2.37-9.88-5.87-2.46-3.05-4.14-6.78-5.65-10.34-4.13-9.75-7.91-21.11-4.57-31.46.05-.15.13-.27.25-.37,4.16-3.59,10.63-3.23,14.42.81,2.76,2.93,3.76,7.03,4.73,11,.25,1.01.5,2.05.78,3.04.97,3.46,2.37,6.76,4.17,9.8.49.83,1.03,1.66,1.54,2.47,1.09,1.7,2.21,3.45,3.07,5.37,1.52,3.42,1.8,6.8.81,9.53-1.31,3.6-4.99,6.06-8.93,6.06ZM8.95,57.49c-3.04,9.77.6,20.68,4.59,30.08,1.52,3.6,3.08,7.06,5.41,9.95,2.54,3.14,5.63,5.01,8.72,5.26,3.49.28,6.84-1.8,7.99-4.94,1.14-3.14,0-6.54-.77-8.29-.8-1.81-1.89-3.51-2.95-5.15-.52-.82-1.07-1.66-1.57-2.52-1.87-3.17-3.34-6.6-4.34-10.2-.28-1.02-.54-2.07-.79-3.09-.92-3.76-1.87-7.64-4.33-10.26-3.08-3.28-8.5-3.64-11.95-.83Z"/><path class="e" d="m6.21,62.53c-2.62.59-4.4,2.77-4.96,5.05-.56,2.28-.12,4.67.4,6.97,1.29,5.78,3.05,11.52,5.81,16.92,1.59,3.11,3.61,6.19,6.77,8.23,2.88,1.85,7.67,2.34,9.4-.3,1.07-1.63.44-3.7-.22-5.51-3.6-9.83-7.66-19.55-12.15-29.13-.4-.86-.85-1.76-1.7-2.32-.86-.57-2.03-.22-3.34.08Z"/><path class="d" d="m19.5,102.06c-2.03,0-4.19-.67-5.72-1.65-3.55-2.29-5.64-5.77-7.07-8.55-2.49-4.88-4.36-10.32-5.88-17.12-.53-2.37-1-4.9-.39-7.35.7-2.83,2.89-5.06,5.59-5.66h0l.34-.08c1.26-.29,2.56-.59,3.64.12,1.08.71,1.61,1.84,2,2.66,4.48,9.56,8.58,19.38,12.18,29.19.73,2,1.41,4.31.14,6.25-1.03,1.57-2.86,2.19-4.82,2.19ZM6.39,63.34c-2.09.47-3.79,2.21-4.34,4.44-.52,2.11-.09,4.41.4,6.59,1.49,6.66,3.31,11.98,5.74,16.73,1.33,2.6,3.26,5.84,6.48,7.91,2.62,1.69,6.89,2.04,8.25-.05.85-1.3.31-3.07-.31-4.77-3.58-9.77-7.66-19.55-12.12-29.06-.41-.86-.77-1.56-1.41-1.98-.48-.32-1.35-.12-2.35.11l-.35.08h0Z"/><path class="d" d="m10.28,62.96s-.09-.01-.13-.03c-.14-.07-.19-.24-.12-.37.69-1.32,1.55-2.53,2.57-3.62.1-.11.28-.12.39-.01.11.11.12.28.01.39-.98,1.04-1.82,2.22-2.48,3.49-.05.1-.15.15-.25.15Z"/><path class="d" d="m12.69,67.47s-.08,0-.12-.03c-.14-.07-.19-.24-.12-.37.52-1.02,1.27-1.94,2.18-2.64.12-.09.29-.07.39.05.09.12.07.3-.05.39-.84.65-1.54,1.5-2.02,2.45-.05.1-.15.15-.25.15Z"/><path class="d" d="m17.79,79.68c-.11,0-.21-.06-.25-.16-.06-.14,0-.3.14-.37l2.97-1.37c.14-.06.3,0,.37.14.06.14,0,.3-.14.37l-2.97,1.37s-.08.03-.12.03Z"/><path class="d" d="m15.44,73.55c-.07,0-.13-.02-.19-.07-.11-.1-.12-.28-.02-.39.75-.83,1.6-1.57,2.53-2.2.13-.09.3-.05.38.07.09.13.05.3-.07.38-.89.61-1.71,1.32-2.43,2.12-.05.06-.13.09-.21.09Z"/><path class="d" d="m24.21,87.09s-.05,0-.07-.01l-3.51-.98c-.15-.04-.23-.19-.19-.34.04-.15.19-.23.34-.19l3.51.98c.15.04.23.19.19.34-.03.12-.15.2-.27.2Z"/><path class="d" d="m27.52,94.12c-1.83,0-3.67-.83-4.86-2.21-.1-.12-.09-.29.03-.39.11-.1.29-.09.39.03,1.15,1.33,2.96,2.1,4.72,2.02.15-.02.28.11.29.26,0,.15-.11.28-.26.29-.1,0-.2,0-.31,0Z"/><path class="d" d="m27.94,100.34s-.04,0-.06,0c-1.53-.32-2.88-1.33-3.62-2.7-.07-.13-.02-.3.11-.38.14-.07.3-.02.38.11.66,1.23,1.87,2.13,3.24,2.42.15.03.25.18.22.33-.03.13-.14.22-.27.22Z"/><path class="e" d="m90.96,56.53c-3.79-3.27-9.81-2.93-13.27.75-3.3,3.51-3.97,8.89-5.31,13.69-.99,3.53-2.43,6.9-4.26,10-1.53,2.58-3.34,4.99-4.56,7.76-1.23,2.77-1.83,6.06-.79,8.91,1.33,3.67,5.21,5.77,8.83,5.48,3.62-.29,6.9-2.6,9.3-5.56,2.39-2.97,4.01-6.56,5.53-10.15,4.14-9.76,7.79-20.81,4.54-30.88Z"/><path class="d" d="m70.91,103.98c-3.94,0-7.62-2.46-8.93-6.06-.99-2.73-.71-6.12.81-9.53.85-1.92,1.98-3.68,3.07-5.37.52-.8,1.05-1.64,1.54-2.47,1.8-3.04,3.2-6.34,4.17-9.8.28-.99.53-2.03.78-3.04.97-3.97,1.97-8.07,4.73-11,3.79-4.03,10.26-4.4,14.42-.81.12.1.2.23.25.37,3.34,10.35-.43,21.71-4.57,31.46-1.51,3.56-3.19,7.29-5.65,10.34-2.83,3.5-6.33,5.59-9.88,5.87-.25.02-.5.03-.75.03Zm13.86-48.86c-2.39,0-4.78.92-6.48,2.72-2.46,2.61-3.41,6.5-4.33,10.26-.25,1.02-.51,2.07-.79,3.09-1.01,3.6-2.47,7.03-4.34,10.2-.51.86-1.05,1.7-1.57,2.52-1.05,1.64-2.15,3.34-2.95,5.15-.78,1.75-1.91,5.15-.77,8.29,1.14,3.14,4.5,5.22,7.99,4.94,3.08-.25,6.18-2.11,8.72-5.26,2.33-2.89,3.89-6.35,5.41-9.95,3.98-9.4,7.63-20.31,4.59-30.08-1.55-1.26-3.51-1.89-5.47-1.89Z"/><path class="e" d="m92.99,62.05c2.62.59,4.4,2.77,4.96,5.05.56,2.28.12,4.67-.4,6.97-1.29,5.78-3.05,11.52-5.81,16.92-1.59,3.11-3.61,6.19-6.77,8.23-2.87,1.85-7.67,2.34-9.4-.3-1.07-1.63-.44-3.7.22-5.51,3.6-9.83,7.66-19.55,12.15-29.13.4-.86.85-1.76,1.7-2.32.86-.56,2.03-.22,3.34.08Z"/><path class="d" d="m79.7,101.58c-1.96,0-3.8-.62-4.83-2.19-1.27-1.95-.59-4.25.14-6.25,3.6-9.81,7.69-19.64,12.18-29.19.39-.82.91-1.95,2-2.66,1.08-.71,2.38-.41,3.64-.12l.34.08c2.7.61,4.89,2.83,5.59,5.66.61,2.46.14,4.98-.39,7.35-1.52,6.81-3.39,12.25-5.88,17.12-1.42,2.78-3.51,6.27-7.06,8.55-1.52.98-3.69,1.65-5.72,1.65Zm11.09-39.08c-.27,0-.51.05-.68.17-.64.42-1,1.12-1.41,1.98-4.46,9.51-8.54,19.29-12.12,29.06-.62,1.7-1.16,3.47-.31,4.77,1.37,2.09,5.63,1.74,8.25.05,3.22-2.07,5.16-5.32,6.48-7.91,2.43-4.75,4.25-10.06,5.74-16.73.49-2.18.92-4.49.4-6.59-.55-2.22-2.25-3.97-4.34-4.44h0l-.35-.08c-.63-.15-1.21-.28-1.67-.28Z"/><path class="d" d="m88.91,62.49c-.1,0-.2-.05-.25-.15-.66-1.27-1.5-2.45-2.48-3.49-.1-.11-.1-.29.01-.39.11-.1.29-.1.39.01,1.02,1.08,1.88,2.3,2.57,3.62.07.14.02.3-.12.37-.04.02-.08.03-.13.03Z"/><path class="d" d="m86.5,67c-.1,0-.2-.06-.25-.15-.48-.95-1.18-1.8-2.02-2.45-.12-.09-.14-.27-.05-.39.09-.12.27-.14.39-.05.91.7,1.66,1.62,2.17,2.64.07.14.01.3-.12.37-.04.02-.08.03-.12.03Z"/><path class="d" d="m81.41,79.21s-.08,0-.12-.03l-2.97-1.37c-.14-.06-.2-.23-.14-.37.06-.14.23-.2.37-.14l2.97,1.37c.14.06.2.23.14.37-.05.1-.15.16-.25.16Z"/><path class="d" d="m83.76,73.08c-.08,0-.15-.03-.21-.09-.72-.8-1.54-1.51-2.43-2.12-.13-.09-.16-.26-.07-.38.09-.13.26-.16.39-.07.92.63,1.78,1.37,2.53,2.2.1.11.09.29-.02.39-.05.05-.12.07-.19.07Z"/><path class="d" d="m74.98,86.62c-.12,0-.23-.08-.27-.2-.04-.15.05-.3.19-.34l3.51-.98c.15-.04.3.05.34.19.04.15-.05.3-.19.34l-3.51.98s-.05.01-.07.01Z"/><path class="d" d="m71.67,93.64c-.1,0-.2,0-.31,0-.15,0-.27-.14-.26-.29,0-.15.13-.28.29-.26,1.76.09,3.57-.68,4.72-2.02.1-.12.28-.13.39-.03.12.1.13.28.03.39-1.19,1.38-3.03,2.21-4.86,2.21Z"/><path class="d" d="m71.25,99.86c-.13,0-.24-.09-.27-.22-.03-.15.07-.3.22-.33,1.37-.28,2.58-1.19,3.24-2.42.07-.13.24-.18.38-.11.14.07.19.24.11.38-.74,1.37-2.09,2.38-3.62,2.7-.02,0-.04,0-.06,0Z"/><path class="d" d="m36.67,121.26c-.82,0-1.61-.02-2.38-.05-3.71-.13-8.04-.46-12.01-1.91-4.34-1.58-7.71-4.35-9.5-7.78-1.43-2.74-1.82-5.81-2.2-8.77-.29-2.25-.59-4.57-1.34-6.67-.16-.43.07-.91.5-1.06.43-.15.91.07,1.06.5.82,2.27,1.13,4.69,1.43,7.02.38,2.95.74,5.74,2.03,8.22,1.6,3.06,4.65,5.55,8.6,6.99,3.74,1.37,7.74,1.68,11.5,1.81,2.79.1,6.02.13,9.02-.78.44-.13.9.11,1.04.55.13.44-.11.9-.55,1.04-2.39.73-4.87.9-7.18.9Z"/><path class="e" d="m53.06,114.39c-3.68-.92-7.73-1.37-11.12.32-1.35.68-2.61,1.79-2.92,3.26-.39,1.84.84,3.74,2.49,4.66,1.65.92,3.61,1.05,5.49,1.01,1.89-.03,3.83-.22,5.53-1.05,1.7-.83,3.12-2.42,3.31-4.31s-1.18-3.92-2.77-3.9Z"/><path class="d" d="m46.49,124.48c-1.74,0-3.69-.18-5.39-1.12-1.81-1.01-3.39-3.24-2.9-5.56.45-2.1,2.3-3.3,3.36-3.83,3.91-1.95,8.47-1.18,11.6-.41.82.03,1.61.42,2.26,1.13.89.97,1.37,2.38,1.24,3.68-.2,2.02-1.65,3.93-3.77,4.97-1.94.95-4.16,1.11-5.88,1.14-.17,0-.34,0-.52,0Zm.74-10.08c-1.9,0-3.51.35-4.92,1.05-1.36.68-2.26,1.66-2.48,2.69-.33,1.53.8,3.04,2.08,3.76,1.53.85,3.42.94,5.08.91,1.64-.03,3.53-.17,5.18-.97,1.61-.79,2.71-2.19,2.85-3.64.08-.83-.23-1.77-.81-2.39-.35-.38-.74-.59-1.12-.59h-.02c-.07,0-.13,0-.2-.02-2.12-.53-3.99-.79-5.63-.79Z"/><g class="g"><path class="d" d="m37.32,92.06c-.16-.8-.03-1.75-.53-2.43-.42-.63-1.32-.76-1.96-.39-.78.43-.84,1.34-.63,2.11.05.45.16,1.51.16,1.79.13.9-.56,3.21-.63,3.24-.72,1.22-1.18,1.54-1.88,2.06-1.52.83-.78.53-2.19.93-.08.01-.13.02-.18.03-.22.02-.44.04-.66.04-2.43-.14-2.69-.27-4.55-.52-.3-.11-.58-.15-.84-.15.57-.86.85-1.89,1.03-2.9.1-.73.24-1.6-.35-2.16-.57-.57-1.53-.57-2.11,0-.39.35-.4.87-.53,1.34-.02.19-.16.62-.25.88-.08.14-.17.28-.26.41-.07.08-.15.15-.23.23-.45.24-.35.29-1.28.46-.02,0-.03,0-.05,0-2.4.14-2.8.11-5.12-.74-.16-.07-.42-.2-.56-.27-.64-.3-1.27-.84-2.02-.6-1.25.3-1.49,2.14-.36,2.75,2.09,1.29,6.8,3.51,10.05,2.22-.2.88.18,1.88,1.41,2.32,2.69.33,5.47,1.01,8.15.35,2.46-.7,4.62-2.52,5.68-4.85.41-.85.53-1.8.66-2.73.12-1.13.22-2.27.05-3.4Z"/></g><g class="g"><path class="d" d="m56.2,118.53c-.26-.73-1.12-1.11-1.86-.91-1.26.62-.92.79-1.78,1.25-.74.57-2.5.92-2.99.94-2.39.1-2.99-.18-3.78-.23-2.11-.38-2.91-.65-4.05-1.22-2.02-1.14-3.76,1.84-1.78,3.05,3.94,2.32,9.02,2.73,13.18.74.82-.37,1.55-.89,2.25-1.46.69-.46,1.23-1.34.82-2.15Z"/></g><g class="g"><path class="d" d="m85.63,96.28c-.72.02-1.25.61-1.91.81.09-.04.4-.17.24-.1-.65.26-1.32.46-2.01.59-.24.02-.69.06-.87.04-.14,0-.31,0-.43-.02-.79-.14-.83-.19-1.02-.26-.16-.08-.31-.18-.46-.28-.13-.11-.32-.28-.43-.41-.07-.09-.13-.18-.19-.28-.09-.14-.17-.29-.25-.45-.01-.05-.04-.13-.07-.24-.1-.51-.38-.99-.85-1.25-1.25-.79-2.95.51-2.51,1.93.22.88.65,1.71,1.23,2.42-.15-.08-.3-.16-.47-.21-1.08-.28-2.09.43-3.16.51-.04,0-.07.01-.11.02-1.26.14-1.98.3-3.34-.09-.69-.17-1.94-1.18-2.05-1.32-.64-.62-1.2-1.31-1.74-2-.05-.07-.1-.14-.15-.21-.31-.39-.45-.94-.87-1.22-1.18-.99-2.91.54-2.11,1.85,1.42,3.02,3.36,6.25,6.89,6.97,1.84.47,3.77.46,5.6-.04,1.26-.23,2.64-.92,2.62-2.38,0-.37-.09-.72-.27-1.03.45.37.94.68,1.48.89,1.05.36,2.19.36,3.28.16,1.31-.22,2.58-.66,3.77-1.25.59-.33,1.33-.65,1.51-1.36.26-.86-.45-1.78-1.35-1.77Z"/></g><path class="f" d="m50.3,39.11c-1.63-.15-3.42.53-4.42,1.83-.87,1.14-.85,2.7-.79,4.13.19,4.7.37,9.41.56,14.11.05,1.37.21,2.95,1.33,3.75.56.4,1.27.52,1.95.62,1.54.23,3.41.28,4.33-.98.5-.68.56-1.58.61-2.42.25-4.38.5-8.77.75-13.15.08-1.42.16-2.87-.19-4.25s-1.07-3.37-4.13-3.64Z"/><path class="d" d="m50.48,64.51c-.59,0-1.16-.06-1.66-.14-.82-.12-1.62-.27-2.31-.77-1.55-1.1-1.64-3.24-1.68-4.39l-.56-14.11c-.07-1.71-.04-3.35.96-4.67,1.13-1.49,3.16-2.33,5.15-2.16h0c3.87.35,4.59,3.2,4.86,4.27.39,1.52.29,3.1.22,4.5l-.75,13.15c-.05.83-.11,1.96-.77,2.86-.84,1.15-2.18,1.46-3.46,1.46Zm-.63-24.59c-1.3,0-2.59.59-3.3,1.52-.67.88-.68,2.21-.62,3.6l.56,14.11c.05,1.2.17,2.52.98,3.1.4.28.96.38,1.59.48,1.86.28,3.02.06,3.54-.65.34-.47.4-1.14.45-1.98l.75-13.15c.08-1.34.16-2.73-.17-3.99-.34-1.34-.91-2.8-3.4-3.02h0c-.13-.01-.25-.02-.38-.02Z"/><path class="f" d="m49.22,22.59c-1.96.02-3.78,1.47-4.39,3.33-.61,1.86-.07,4.02,1.23,5.49.29.33.63.63,1.02.84.3.15.62.24.95.3,1.78.32,3.7-.34,4.89-1.69,1.2-1.35,1.63-3.34,1.09-5.06-.53-1.72-2.01-3.12-4.79-3.2Z"/><path class="d" d="m48.92,33.46c-.35,0-.7-.03-1.04-.09-.46-.08-.84-.21-1.18-.38-.44-.23-.85-.56-1.26-1.02-1.54-1.73-2.09-4.21-1.4-6.3.74-2.24,2.91-3.88,5.17-3.9.01,0,.02,0,.03,0,2.82.07,4.85,1.45,5.57,3.78.62,2,.12,4.3-1.27,5.86-1.15,1.3-2.89,2.05-4.63,2.05Zm.3-10.03c-1.57.02-3.08,1.18-3.6,2.76-.51,1.54-.09,3.37,1.06,4.67.27.31.53.52.78.65.19.1.43.17.72.22,1.49.27,3.11-.29,4.12-1.43,1.01-1.14,1.37-2.81.92-4.27-.36-1.15-1.34-2.54-4-2.61Z"/></g></svg>