<?xml version="1.0" encoding="UTF-8"?><svg id="b" xmlns="http://www.w3.org/2000/svg" viewBox="0 0 10.47 10.21"><defs><style>.d{stroke-miterlimit:10;}.d,.e{fill:none;stroke:#eb6100;stroke-width:.45px;}.e{stroke-linecap:round;stroke-linejoin:round;}.f{fill:#eb6100;stroke-width:0px;}</style></defs><g id="c"><path class="d" d="m6.09.95c0-.19-.06-.37-.18-.51-.12-.14-.28-.21-.44-.21h-3.31c-.16,0-.32.07-.44.21-.12.14-.18.33-.18.51v7.1c0,.19.06.37.18.51.12.14.28.21.44.21h3.31c.16,0,.32-.07.44-.21.12-.14.18-.33.18-.51V.95Z"/><rect class="d" x="2.4" y="1.16" width="2.83" height="4.2"/><rect class="f" x="2.85" y="5.96" width=".43" height=".43"/><rect class="f" x="3.6" y="5.96" width=".43" height=".43"/><rect class="f" x="4.35" y="5.96" width=".43" height=".43"/><rect class="f" x="2.85" y="6.7" width=".43" height=".43"/><rect class="f" x="3.6" y="6.7" width=".43" height=".43"/><rect class="f" x="4.35" y="6.7" width=".43" height=".43"/><rect class="f" x="2.85" y="7.45" width=".43" height=".43"/><rect class="f" x="3.6" y="7.45" width=".43" height=".43"/><rect class="f" x="4.35" y="7.45" width=".43" height=".43"/><polyline class="e" points=".85 7.45 .22 7.45 .22 9.98 10.24 9.98 10.24 7.45 6.71 7.45"/><path class="f" d="m9.6,8.26c0,.12-.1.22-.21.22s-.22-.1-.22-.22.1-.22.22-.22.21.1.21.22Z"/></g></svg>