<?xml version="1.0" encoding="UTF-8"?><svg id="b" xmlns="http://www.w3.org/2000/svg" viewBox="0 0 65.65 69.92"><defs><style>.d,.e,.f{stroke-width:0px;}.g{fill:none;}.g,.h,.i,.j,.k{stroke:#7eb59c;stroke-miterlimit:10;}.g,.h,.j,.k{stroke-width:2px;}.e,.k{fill:#7eb59c;}.f,.j{fill:#fff;}.i{stroke-width:1.5px;}</style></defs><g id="c"><path class="f" d="m26.14,44.58c-.13-8.76,13.63-8.76,13.5,0,.13,8.76-13.63,8.76-13.5,0Z"/><path class="d" d="m32.89,51.86c-9.44.13-9.44-14.69,0-14.56,9.44-.13,9.44,14.69,0,14.56Zm0-13.5c-8.07-.11-8.07,12.56,0,12.44,8.07.11,8.07-12.55,0-12.44Z"/><path class="g" d="m44.96,68.31c1.11-7.32-3.28-14.03-12.07-14.05-8.79.02-13.17,6.73-12.07,14.05h24.14Z"/><path class="g" d="m44.96,68.84h-24.14c-.29,0-.53-.24-.53-.53-2.98-20.35,30.02-18.4,24.67.53Zm-23.61-1.06h23.08c2.7-17.18-25.79-17.17-23.08,0Z"/><path class="d" d="m53.02,53.3c-8.7.12-8.7-13.54,0-13.42,8.7-.12,8.7,13.54,0,13.42Zm0-12.36c-7.33-.1-7.33,11.4,0,11.3,7.33.1,7.33-11.4,0-11.3Z"/><path class="d" d="m64.06,68.84c-.3-.27-16.67.63-16.16-.53-.68-1.16,15.46-.27,15.63-.53,1.19-10.72-8.41-13.55-17.15-10.48,5.15-5.93,18.95-.38,18.21,7.45-.23.44.54,4.22-.53,4.09Z"/><path class="d" d="m12.76,53.3c-8.7.12-8.7-13.54,0-13.42,8.7-.12,8.7,13.54,0,13.42Zm0-12.36c-7.33-.1-7.33,11.4,0,11.3,7.33.1,7.33-11.4,0-11.3Z"/><path class="d" d="m17.34,68.84H1.71c-3.79-9.56,8.37-17.59,17.48-12.26,1.44,2.39-5.02-1.35-6.44-.6-7.43.03-11.45,5.57-10.52,11.8-.1.38,18.95-1.01,15.1,1.06Z"/><path class="j" d="m26.14,44.58c-.13-8.76,13.63-8.76,13.5,0,.13,8.76-13.63,8.76-13.5,0Z"/><path class="h" d="m32.89,51.86c-9.44.13-9.44-14.69,0-14.56,9.44-.13,9.44,14.69,0,14.56Zm0-13.5c-8.07-.11-8.07,12.56,0,12.44,8.07.11,8.07-12.55,0-12.44Z"/><path class="k" d="m53.02,53.3c-8.7.12-8.7-13.54,0-13.42,8.7-.12,8.7,13.54,0,13.42Zm0-12.36c-7.33-.1-7.33,11.4,0,11.3,7.33.1,7.33-11.4,0-11.3Z"/><path class="k" d="m64.06,68.84c-.3-.27-16.67.63-16.16-.53-.68-1.16,15.46-.27,15.63-.53,1.19-10.72-8.41-13.55-17.15-10.48,5.15-5.93,18.95-.38,18.21,7.45-.23.44.54,4.22-.53,4.09Z"/><path class="k" d="m12.76,53.3c-8.7.12-8.7-13.54,0-13.42,8.7-.12,8.7,13.54,0,13.42Zm0-12.36c-7.33-.1-7.33,11.4,0,11.3,7.33.1,7.33-11.4,0-11.3Z"/><path class="k" d="m17.34,68.84H1.71c-3.79-9.56,8.37-17.59,17.48-12.26,1.44,2.39-5.02-1.35-6.44-.6-7.43.03-11.45,5.57-10.52,11.8-.1.38,18.95-1.01,15.1,1.06Z"/><path class="j" d="m42.15,17.93c-1.47-16.47-25.49-6.42-14.89,6.17,1.8,1.79,3.16,2.97,3.16,5.51h6.01c.08-4.71,6.28-6.43,5.72-11.68Z"/><path class="h" d="m36.44,29.99c-10.3.27-3.44.14-9.1-5.28-11.94-13.01,13.54-24.34,15.2-6.78.27,5.32-5.26,7.47-6.1,12.06Zm-5.64-.77h5.27c.12-2.41,1.55-3.72,3.2-5.33,5.43-4.94,1.3-14.74-6.03-14.29-7.15-.06-10.88,9.37-5.69,14.23,1.63,1.63,3.14,2.96,3.26,5.39Z"/><path class="e" d="m29.87,30.96v-2.95h7.12v2.95c.07,4.49-7.19,4.49-7.12,0Z"/><path class="e" d="m33.43,34.77c-3.68.05-4.26-3.89-3.95-6.75-.44-.8,7.34-.22,7.51-.39.77-.1.24,2.86.39,3.19,0,2.18-1.77,3.95-3.95,3.95Zm-3.18-6.37c-1.2,7.49,7.56,7.48,6.35,0h-6.35Z"/><path class="h" d="m36.18,20.99c-.13-.11-5.64.21-5.62-.13-.03-.34,5.49-.02,5.62-.13.16,0,.17.26,0,.26Z"/><path class="h" d="m33.43,4.64c-.22.15-.22-3.78,0-3.63.22-.15.22,3.78,0,3.63Z"/><path class="h" d="m42.91,9.1c-.61.04,2.49-2.88,2.48-2.61.05.05.05.13,0,.18-.1.05-2.34,2.45-2.48,2.43Z"/><path class="h" d="m49.81,17.44c-.09-.09-3.6.19-3.5-.13-.1-.32,3.42-.04,3.5-.13.17,0,.17.26,0,.26Z"/><path class="h" d="m24.48,9.1c-.13.03-2.38-2.38-2.48-2.43-.05-.05-.05-.13,0-.18-.03-.28,3.09,2.65,2.48,2.61Z"/><path class="h" d="m20.95,17.44c-.09-.09-3.6.19-3.5-.13-.1-.32,3.42-.04,3.5-.13.17,0,.17.26,0,.26Z"/><path class="i" d="m32.16,28.24c-.91-.17-.21-6.14-3.47-9.09-.16-.14-.17-.39-.02-.54,3.44.92,4.37,10.27,3.49,9.63Z"/><path class="i" d="m34.7,28.24c-.88.65.06-8.71,3.49-9.63.14.16.13.4-.02.54-3.26,2.95-2.55,8.9-3.47,9.09Z"/><path class="h" d="m37.91,19.56c-.92.03-.98-1.22-1.49-1.54-1.35,2.1-1.64,2.09-2.98,0-1.37,2.11-1.62,2.09-2.99,0-.39.31-1.23,2.47-1.88,1.16.09-.52.63-.27.79-.94.92-2.01,1.91-.52,2.59.55.51-.32.58-1.58,1.49-1.54,1.09-.19,1.2,2.59,1.89.99.32-1.24,1.86-1.24,2.19,0,.16.6,1.45.92.4,1.32Z"/></g></svg>