<?xml version="1.0" encoding="UTF-8"?><svg id="b" xmlns="http://www.w3.org/2000/svg" viewBox="0 0 79.69 67.14"><defs><style>.d{fill:none;}.d,.e,.f{stroke:#eb6100;stroke-miterlimit:10;}.d,.f{stroke-width:2px;}.e{stroke-width:1.5px;}.e,.f{fill:#eb6100;}</style></defs><g id="c"><path class="f" d="m21.92,54.87s-.03,0-.04,0c-.22-.02-.41-.17-.47-.39l-3.33-12.31H4.97c-2.19,0-3.97-2.21-3.97-4.92V5.92C1,3.21,2.78,1,4.97,1h54.6c2.19,0,3.97,2.21,3.97,4.92v23.09c0,.29-.24.53-.53.53s-.53-.24-.53-.53V5.92c0-2.13-1.31-3.86-2.91-3.86H4.97c-1.61,0-2.91,1.73-2.91,3.86v31.32c0,2.13,1.31,3.86,2.91,3.86h13.52c.24,0,.45.16.51.39l3.04,11.27,5.11-11.35c.09-.19.27-.31.48-.31h16.17c.29,0,.53.24.53.53s-.24.53-.53.53h-15.82l-5.57,12.39c-.09.19-.28.31-.48.31Z"/><path class="e" d="m46.09,19.82c.88,0,1.6.72,1.6,1.6s-.72,1.6-1.6,1.6-1.6-.72-1.6-1.6.72-1.6,1.6-1.6Z"/><path class="e" d="m46.09,23.62c-1.21,0-2.2-.99-2.2-2.2s.99-2.2,2.2-2.2,2.2.99,2.2,2.2-.99,2.2-2.2,2.2Zm0-3.2c-.55,0-1,.45-1,1s.45,1,1,1,1-.45,1-1-.45-1-1-1Z"/><path class="e" d="m32.96,19.82c.88,0,1.6.72,1.6,1.6s-.72,1.6-1.6,1.6-1.6-.72-1.6-1.6.72-1.6,1.6-1.6Z"/><path class="e" d="m32.96,23.62c-1.21,0-2.2-.99-2.2-2.2s.99-2.2,2.2-2.2,2.2.99,2.2,2.2-.99,2.2-2.2,2.2Zm0-3.2c-.55,0-1,.45-1,1s.45,1,1,1,1-.45,1-1-.45-1-1-1Z"/><path class="e" d="m20.02,19.82c.88,0,1.6.72,1.6,1.6s-.72,1.6-1.6,1.6-1.6-.72-1.6-1.6.72-1.6,1.6-1.6Z"/><path class="e" d="m20.02,23.62c-1.21,0-2.2-.99-2.2-2.2s.99-2.2,2.2-2.2,2.2.99,2.2,2.2-.99,2.2-2.2,2.2Zm0-3.2c-.55,0-1,.45-1,1s.45,1,1,1,1-.45,1-1-.45-1-1-1Z"/><path class="d" d="m71.52,59.43l3.26.83c1.81-3.32,1.57-2.88,3.38-6.2l-2.47-2.29c-.05-2.05-.08-3.17-.13-5.22l2.35-2.4c-1.97-3.23-1.71-2.8-3.68-6.03l-3.21.99c-1.8-.98-2.79-1.52-4.59-2.5l-.91-3.24c-3.78.09-3.28.08-7.06.17l-.75,3.28c-1.75,1.07-2.71,1.65-4.46,2.72l-3.26-.83c-1.81,3.32-1.57,2.88-3.38,6.2l2.47,2.29c.05,2.05.08,3.17.13,5.22l-2.35,2.4c1.97,3.23,1.71,2.8,3.68,6.03l3.21-.99c1.8.98,2.79,1.52,4.59,2.5l.91,3.24c3.78-.09,3.28-.08,7.06-.17l.75-3.28c1.75-1.07,2.71-1.65,4.46-2.72Zm-13.81-5.27c-2.58-2.58-2.58-6.77,0-9.35,2.58-2.58,6.77-2.58,9.35,0,2.58,2.58,2.58,6.77,0,9.35-2.58,2.58-6.77,2.58-9.35,0Z"/><path class="d" d="m59.25,66.14c-.24,0-.45-.16-.51-.39l-.85-3.02-4.19-2.29-3,.93c-.23.07-.48-.02-.61-.23l-3.68-6.03c-.13-.21-.1-.47.07-.65l2.2-2.24-.12-4.78-2.3-2.14c-.18-.16-.22-.43-.11-.64l3.38-6.2c.12-.21.36-.32.6-.26l3.04.78,4.08-2.49.7-3.06c.05-.24.26-.41.5-.41l7.06-.17c.23,0,.46.15.52.39l.85,3.02,4.19,2.29,3-.93c.23-.07.48.02.61.23l3.68,6.03c.13.21.1.47-.07.65l-2.2,2.25.12,4.77,2.3,2.14c.18.16.22.43.11.64l-3.38,6.2c-.12.21-.36.32-.6.26l-3.04-.78-4.08,2.49-.7,3.06c-.05.24-.26.41-.5.41l-7.06.17h-.01Zm-5.49-6.8c.09,0,.18.02.25.06l4.59,2.5c.13.07.22.18.26.32l.8,2.84,6.24-.15.66-2.88c.03-.14.12-.26.24-.33l4.46-2.72c.12-.07.27-.1.41-.06l2.86.73,2.99-5.48-2.16-2.01c-.1-.1-.17-.23-.17-.38l-.13-5.22c0-.14.05-.28.15-.38l2.06-2.11-3.25-5.33-2.82.87c-.14.04-.28.03-.41-.04l-4.59-2.5c-.13-.07-.22-.18-.26-.32l-.8-2.84-6.24.15-.66,2.88c-.03.14-.12.26-.24.33l-4.46,2.72c-.12.07-.27.1-.41.06l-2.86-.73-2.99,5.48,2.16,2.01c.1.1.17.23.17.38l.13,5.22c0,.14-.05.28-.15.38l-2.06,2.11,3.25,5.33,2.82-.87c.05-.02.1-.02.16-.02Zm8.63-2.71c-1.83,0-3.66-.7-5.05-2.09h0c-2.79-2.78-2.79-7.32,0-10.1s7.32-2.78,10.1,0c2.78,2.79,2.78,7.32,0,10.1-1.39,1.39-3.22,2.09-5.05,2.09Zm-4.3-2.84c2.37,2.37,6.23,2.37,8.6,0,2.37-2.37,2.37-6.23,0-8.6-2.37-2.37-6.23-2.37-8.6,0-2.37,2.37-2.37,6.23,0,8.6h0Z"/></g></svg>