<?xml version="1.0" encoding="UTF-8"?><svg id="b" xmlns="http://www.w3.org/2000/svg" viewBox="0 0 98.36 75.11"><defs><style>.d,.e,.f{stroke-width:0px;}.e{fill:#fff;}.f{fill:#acd4f7;}</style></defs><g id="c"><path class="e" d="m.53,5.91v46.08c0,2.11,2,4.35,4.48,4.35h66.02c3.4,0,5.12-3.37,5.12-5.47l-.32-45.58c0-2.11-2-4.63-4.48-4.63L5.81.53C3.33.53.53,2.77.53,5.91Z"/><path class="d" d="m71.03,56.87H5c-2.86,0-5-2.58-5-4.88V5.91C0,2.43,3.06,0,5.81,0l65.54.14c2.82,0,5,2.77,5,5.16l.32,45.58c0,2.46-2.01,6-5.65,6ZM5.8,1.05C3.56,1.05,1.05,3.13,1.05,5.91v46.08c0,1.77,1.73,3.83,3.95,3.83h66.02c3.2,0,4.59-3.27,4.59-4.94l-.32-45.58c0-1.85-1.82-4.11-3.95-4.11L5.8,1.05Z"/><path class="d" d="m75.84,8.44h0L.53,8.19c-.1,0-.18-.08-.18-.18,0-.1.08-.18.18-.18h0l75.32.26c.1,0,.18.08.18.18,0,.1-.08.18-.18.18Z"/><path class="d" d="m20.74,4.86c-.19,0-.37-.07-.52-.21-.15-.14-.24-.34-.24-.54,0-.37.26-.72.6-.8.32-.06.66.09.82.38.13.22.14.5.03.73-.12.26-.38.43-.66.44,0,0-.01,0-.02,0Zm-.06-1.05c-.09.02-.17.07-.21.16-.04.08-.04.17,0,.24.07.13.21.15.31.13,0,0,0,0,0,0,.06-.01.25-.07.24-.26,0-.08-.03-.15-.08-.2-.06-.05-.14-.09-.22-.08-.02,0-.03,0-.05,0h0s0,0,0,0Z"/><path class="d" d="m14.37,4.86c-.19,0-.37-.07-.52-.21-.15-.14-.24-.34-.24-.54,0-.37.25-.72.6-.8.32-.06.66.09.82.38.13.23.14.5.03.73-.12.26-.38.43-.66.44,0,0-.01,0-.02,0Zm-.06-1.05c-.09.02-.17.07-.21.16-.04.08-.04.17,0,.24.07.13.21.15.31.13,0,0,0,0,0,0,.06-.01.25-.07.24-.26,0-.08-.03-.15-.08-.2-.06-.05-.14-.09-.22-.08-.02,0-.03,0-.05,0h0s0,0,0,0Z"/><path class="d" d="m8,4.86c-.19,0-.38-.07-.52-.21-.15-.14-.24-.34-.24-.54,0-.37.26-.72.6-.8.32-.07.65.09.82.38.13.23.14.5.03.74-.12.25-.38.43-.66.43,0,0-.01,0-.02,0Zm-.06-1.05c-.09.02-.17.07-.21.16-.04.08-.04.17,0,.24.07.13.22.15.31.13,0,0,0,0,0,0,.06-.01.25-.07.24-.26,0-.08-.03-.15-.08-.2-.06-.05-.13-.09-.22-.08-.02,0-.03,0-.05,0h0s0,0,0,0Z"/><path class="e" d="m18.24,38.99c-.34-7.14-.36-14.82-.36-21.63,0,0,30.53-.07,30.94.1,0,6.72-.27,14.54-.04,21.53,0,0-20.44.26-30.53,0Z"/><path class="d" d="m30.61,39.63c-4.53,0-9.04-.03-12.39-.12-.28,0-.5-.23-.51-.5-.33-7.01-.36-14.54-.36-21.66,0-.29.24-.53.53-.53,30.63-.07,31.01.09,31.13.14.2.08.33.27.33.49,0,2.31-.03,4.71-.06,7.25-.06,4.76-.13,9.69.02,14.27,0,.14-.05.28-.15.38-.1.1-.23.16-.37.16-.14,0-9.18.11-18.17.11Zm-11.87-1.16c9.19.21,26.25.03,29.49,0-.13-4.45-.07-9.19,0-13.78.03-2.35.06-4.59.06-6.74-2.88-.09-18.8-.09-29.88-.07,0,6.78.03,13.92.34,20.59Z"/><path class="f" d="m28.05,16.43c.12,1.86.14,3.73.18,5.73,1.09,0,10.42.13,10.42.13,0,0-.18-3.83-.17-5.79l-10.43-.07Z"/><path class="d" d="m38.65,22.82h0c-.09,0-9.34-.13-10.41-.13-.29,0-.52-.23-.53-.52l-.02-.85c-.03-1.68-.06-3.27-.16-4.85,0-.15.04-.29.14-.4.1-.11.24-.17.38-.17h0l10.43.07c.29,0,.52.24.52.53,0,1.93.17,5.73.17,5.77,0,.15-.05.29-.15.39-.1.1-.24.16-.38.16Zm-9.9-1.19c1.89.02,7.53.1,9.35.12-.04-1.02-.13-3.2-.15-4.73l-9.34-.06c.08,1.42.1,2.84.13,4.33v.34Z"/><path class="d" d="m21.34,37.3c-.1,0-.17-.08-.18-.17l-.12-5.05c0-.1.07-.18.17-.18h0c.1,0,.17.08.18.17l.12,5.05c0,.1-.07.18-.17.18h0Z"/><path class="d" d="m23.85,37.29s0,0-.01,0c-.1,0-.17-.09-.17-.19.05-.78.04-1.56-.01-2.34,0-.1.07-.18.16-.19.09,0,.18.07.19.16.06.79.06,1.6.01,2.39,0,.09-.08.17-.18.17Z"/><path class="e" d="m75.96,57.89c3.4,3.34,6.79,6.68,10.19,10.02,1.79,1.76,3.59,3.53,5.55,5.06,1.05.83,2.23,1.61,3.51,1.61,1.28,0,2.64-1.08,2.64-2.53,0-1.13-.79-2.04-1.52-2.81-5.41-5.7-11.06-11.11-16.93-16.2-1.08,1.58-2.15,3.15-3.43,4.84Z"/><path class="d" d="m95.2,75.11h0c-1.44,0-2.7-.83-3.83-1.72-1.98-1.55-3.81-3.35-5.59-5.1l-10.19-10.02c-.19-.19-.21-.48-.05-.69,1.27-1.68,2.36-3.27,3.41-4.81.08-.12.22-.21.37-.23.15-.02.3.02.42.12,5.86,5.08,11.57,10.54,16.96,16.23.8.84,1.66,1.85,1.66,3.17,0,.77-.31,1.51-.88,2.08-.61.61-1.46.98-2.28.98Zm-18.55-17.27l9.86,9.7c1.76,1.73,3.57,3.51,5.5,5.02.99.78,2.06,1.49,3.18,1.49h0c.54,0,1.12-.25,1.53-.67.37-.37.57-.85.57-1.33,0-.93-.68-1.72-1.38-2.45-5.24-5.52-10.77-10.83-16.44-15.77-.88,1.29-1.8,2.62-2.83,4Z"/><path class="e" d="m62.7,20.95c-11.7,0-21.18,9.48-21.18,21.18s9.48,21.18,21.18,21.18,21.18-9.48,21.18-21.18-9.48-21.18-21.18-21.18Z"/><path class="d" d="m62.7,63.83c-11.97,0-21.7-9.74-21.7-21.7s9.74-21.71,21.7-21.71,21.71,9.74,21.71,21.71-9.74,21.7-21.71,21.7Zm0-42.36c-11.39,0-20.65,9.26-20.65,20.65s9.26,20.65,20.65,20.65,20.65-9.26,20.65-20.65-9.26-20.65-20.65-20.65Z"/><path class="e" d="m62.7,25.26c-9.2,0-16.66,7.55-16.66,16.86s7.46,16.86,16.66,16.86,16.66-7.55,16.66-16.86-7.46-16.86-16.66-16.86Z"/><path class="d" d="m62.7,59.16c-9.28,0-16.83-7.64-16.83-17.04s7.55-17.04,16.83-17.04,16.83,7.64,16.83,17.04-7.55,17.04-16.83,17.04Zm0-33.72c-9.09,0-16.48,7.48-16.48,16.68s7.39,16.68,16.48,16.68,16.48-7.48,16.48-16.68-7.39-16.68-16.48-16.68Z"/><path class="d" d="m79.69,60.23s-.08-.01-.11-.04c-.08-.06-.09-.17-.03-.25.77-.95,1.58-1.88,2.41-2.79.07-.07.18-.08.25-.01.07.07.08.18.01.25-.83.9-1.63,1.83-2.4,2.77-.03.04-.09.06-.14.06Z"/><path class="d" d="m60.11,47.12c-.29,0-.53-.24-.53-.53v-8.94c0-.29.24-.53.53-.53s.53.24.53.53v8.94c0,.29-.24.53-.53.53Z"/><path class="d" d="m70.81,47.12c-.29,0-.53-.24-.53-.53v-8.94c0-.29.24-.53.53-.53s.53.24.53.53v8.94c0,.29-.24.53-.53.53Z"/><path class="d" d="m54.6,47.12c-.29,0-.53-.24-.53-.53v-8.94c0-.29.24-.53.53-.53s.53.24.53.53v8.94c0,.29-.24.53-.53.53Z"/><path class="d" d="m65.46,47.12c-.29,0-.53-.24-.53-.53v-8.94c0-.29.24-.53.53-.53s.53.24.53.53v8.94c0,.29-.24.53-.53.53Z"/></g></svg>