<?xml version="1.0" encoding="UTF-8"?><svg id="b" xmlns="http://www.w3.org/2000/svg" viewBox="0 0 10.34 10.55"><defs><style>.d{stroke-linecap:round;stroke-linejoin:round;stroke-width:.4px;}.d,.e{fill:none;stroke:#004098;}.e{stroke-miterlimit:10;stroke-width:.26px;}</style></defs><g id="c"><rect class="d" x=".2" y=".2" width="6.33" height="10.15"/><line class="d" x1="1.21" y1="1.71" x2="5.46" y2="1.71"/><line class="d" x1="1.21" y1="3.01" x2="5.46" y2="3.01"/><line class="d" x1="1.21" y1="4.3" x2="5.46" y2="4.3"/><line class="d" x1="1.21" y1="5.6" x2="5.46" y2="5.6"/><rect class="d" x="8.15" y="1.52" width="1.98" height="7"/><path class="d" d="m8.14,1.34c0-.6.45-1.08,1-1.08.55,0,1,.48,1,1.08v.18h-2v-.18Z"/><polygon class="d" points="9.14 10.3 9.62 9.4 10.11 8.49 9.14 8.49 8.18 8.49 8.66 9.4 9.14 10.3"/><line class="e" x1="9.14" y1="8.4" x2="9.14" y2="1.59"/><polyline class="d" points="1.25 7.13 2.05 7.93 3.43 6.55"/><line class="d" x1="5.46" y1="7.83" x2="3.43" y2="7.83"/></g></svg>