<?xml version="1.0" encoding="UTF-8"?><svg id="b" xmlns="http://www.w3.org/2000/svg" viewBox="0 0 121.2 111.03"><defs><style>.d,.e,.f{stroke-width:0px;}.g{opacity:.13;}.e{fill:#fff;}.f{fill:#acd4f7;}</style></defs><g id="c"><path class="e" d="m71.56,81.63c-.54,7.22-1.07,14.45-1.61,21.67,3.61,2.06,7.1,4.01,10.46,6.15-13.94.31-28.12.57-42.3.83,3.86-2.21,7.83-3.95,11.81-5.68-.34-7-1.01-14.24-1.37-21.26,1.77-.62,3.7-.52,5.57-.46,5.73.17,11.49-.2,17.45-1.25Z"/><path class="d" d="m38.11,111.03c-.33,0-.63-.22-.72-.55-.09-.33.05-.68.35-.85,3.74-2.14,7.63-3.86,11.41-5.51-.18-3.46-.43-7.03-.68-10.48-.24-3.38-.49-6.87-.67-10.26-.02-.33.19-.63.5-.74,1.79-.63,3.67-.57,5.48-.51h.35c5.88.19,11.54-.22,17.3-1.23.23-.04.46.03.63.18.17.15.26.38.24.61l-1.58,21.2,1.1.63c3.12,1.78,6.07,3.46,8.98,5.31.28.18.4.51.32.83-.09.32-.37.54-.7.54-13.84.31-28.14.57-41.97.82h-.34s0,0-.01,0Zm11.21-27.15c.17,3.19.41,6.47.64,9.65.26,3.64.53,7.4.71,11.03.02.31-.16.6-.45.72-3,1.31-6.07,2.65-9.07,4.2,12.14-.22,24.6-.45,36.75-.72-2.2-1.34-4.45-2.62-6.8-3.95l-1.51-.86c-.25-.14-.4-.42-.37-.7l1.54-20.72c-5.54.91-11,1.27-16.66,1.1h-.36c-1.49-.06-3.02-.11-4.41.26Z"/><path class="e" d="m120.45,1.06c0,23.14-.81,44.36-1.99,73.35-37.39-.62-80.57-1.69-117.72-1.69C.75,44.07,1.11,29.09,1.16,1.06c34.89,0,80.53-.71,119.29,0Z"/><path class="d" d="m118.46,75.15h-.01c-9.92-.16-20.05-.36-30.77-.56-29.33-.56-59.66-1.13-86.94-1.13C.33,73.46,0,73.13,0,72.71,0,57.52.1,46.43.21,34.69.3,24.63.39,14.23.42,1.06c0-.41.33-.74.75-.74,11.16,0,23.32-.07,36.19-.15C63.95,0,94.09-.17,120.47.31c.41,0,.73.34.73.75,0,22.73-.79,43.81-1.99,73.38-.02.4-.35.72-.75.72ZM1.49,71.97c27.1.01,57.15.58,86.22,1.13,10.46.2,20.35.39,30.03.55,1.17-28.85,1.94-49.62,1.96-71.86-26.18-.47-56-.29-82.34-.13-12.59.07-24.5.15-35.46.15-.03,12.82-.12,23.02-.21,32.89-.11,11.55-.2,22.46-.21,37.27Z"/><path class="f" d="m.75,72.71c.2,3.8,0,7.12,0,10.88,37.15,0,79.83-.66,117.22,0,.35-3.71.24-6.92.56-10.68-6.29,0-103.33.02-117.78-.2Z"/><path class="d" d="m117.96,84.34h-.01c-25.12-.44-52.65-.29-79.27-.14-13.24.07-25.76.14-37.93.14C.33,84.34,0,84.01,0,83.59c0-1.28.02-2.51.05-3.7.04-2.39.09-4.65-.04-7.14-.01-.21.06-.41.21-.56.14-.15.33-.24.55-.23,8.44.13,46.12.2,111.97.2h5.8c.21,0,.41.09.55.24.14.15.21.36.19.57-.15,1.8-.21,3.5-.26,5.14-.06,1.77-.12,3.6-.3,5.54-.04.38-.36.68-.74.68ZM1.53,73.47c.09,2.23.05,4.28,0,6.45-.02.95-.04,1.93-.04,2.93,11.94,0,24.2-.07,37.18-.14,26.38-.15,53.66-.3,78.61.13.13-1.65.18-3.23.23-4.76.05-1.42.09-2.87.2-4.41h-4.99c-63.98,0-101.37-.07-111.2-.19Z"/><g class="g"><path class="d" d="m70.37,86.2s-.09.04-.13.06c.31-.14.29-.13.13-.06Z"/></g><g class="g"><path class="d" d="m70.02,84.25c-1.4-.21-2.89-.06-4.32-.09-1.92,0-3.82-.14-5.72-.28-2.18-.16-4.38-.12-6.57-.16-.2,0-.67-.04-.92-.06-.01,0-.03,0-.04,0-.12-.01-.24-.02-.37-.03,0,0-.01,0-.03,0-.61-.1-1.36.03-1.72.34-.28.19-.39.45-.33.7-.15.04-.3.1-.43.17-1.07.58-.26,1.71,1.2,1.68,3.71.15,7.43.23,11.15.27,3.25.07,4.82.04,7.38-.29.29-.06.59-.13.86-.22.07-.03.14-.06.19-.09.25-.1.47-.23.64-.38.68-.57.16-1.38-.98-1.58Z"/></g><path class="e" d="m83.58,9.87c1.32,1.56,1.06,2.79,2.39,4.34-10.01,10.43-23.29,25.14-30.93,32.85-.06.06-.05,1.07-3.95-3.32.06-.69,22.62-24.3,32.49-33.87Z"/><path class="d" d="m54.83,47.66c-.38,0-1.18-.35-4.08-3.62-.08-.09-.12-.22-.11-.34.02-.21.06-.7,12.69-13.89,6.14-6.41,14.61-15.11,19.94-20.27.09-.09.22-.13.34-.13.13,0,.25.06.33.16.71.84,1,1.58,1.27,2.31.26.68.5,1.32,1.11,2.04.15.18.14.45-.02.61-4.48,4.67-9.64,10.22-14.62,15.58-6.19,6.66-12.04,12.96-16.26,17.22-.13.23-.33.3-.44.32-.04,0-.09.01-.15.01Zm-3.17-3.98c2.01,2.24,2.81,2.84,3.1,3,4.2-4.25,10.05-10.54,16.24-17.2,4.88-5.26,9.93-10.69,14.36-15.3-.53-.71-.77-1.35-1.01-1.98-.21-.55-.41-1.08-.81-1.65-9.5,9.25-29.81,30.47-31.87,33.13Z"/><path class="e" d="m87.57,5.29c-5.97,3.84-7.65,4.54-8.72,6.46-1.07,1.91-.06,4.17,1.68,5.63,1.82,1.51,3.88.84,4.68.03,1.97-1.97,4.53-6.6,5.78-8.65-1.25-1.29-2.39-2.35-3.44-3.46Z"/><path class="d" d="m82.93,18.74c-.86,0-1.8-.28-2.68-1.01-1.79-1.48-3.03-3.98-1.79-6.2.9-1.6,2.16-2.4,5.55-4.52.95-.59,2.03-1.27,3.32-2.1.19-.12.43-.09.58.07.54.57,1.11,1.13,1.71,1.72.55.55,1.12,1.11,1.73,1.74.15.15.17.38.06.56-.24.39-.52.87-.84,1.41-1.42,2.4-3.37,5.69-5.01,7.33-.56.56-1.53,1.01-2.62,1.01Zm4.57-12.86c-1.16.74-2.14,1.36-3.01,1.9-3.33,2.09-4.45,2.79-5.23,4.19-.99,1.77.08,3.81,1.58,5.05,1.69,1.4,3.5.63,4.07.06,1.56-1.56,3.55-4.92,4.87-7.15.24-.41.46-.78.66-1.11-.51-.52-.99-1-1.47-1.47-.51-.5-.99-.98-1.46-1.47Z"/><path class="f" d="m62.23,43.66c-.19-.52-4.93-5.9-8.09-8.56.03,2.37-2.34,4.91-4.27,6.42-1.93,1.51-3.56,2.32-5.69,3.44-5.42,2.84-10.61,6.75-13.5,12.29-.54,1.02-2.62,5.46.41,8.6,1.1,1.14,2.09,2.49,3.59,3.02,2.81,1,6.08-.88,8.59-3,3.65-3.1,6.76-6.92,9.08-11.15,1.2-2.19,2.24-4.48,3.69-6.51,2-2.81,3.09-3.52,6.2-4.54Z"/><path class="d" d="m36.32,69.6c-.61,0-1.21-.09-1.81-.31-1.31-.47-2.24-1.48-3.14-2.46-.21-.23-.42-.46-.63-.68-3.17-3.28-1.17-7.82-.49-9.13,2.54-4.85,7.14-9.05,13.7-12.48l.46-.24c1.91-1,3.41-1.78,5.16-3.15,1.99-1.56,4.11-3.97,4.09-6.05,0-.18.1-.34.26-.42.16-.08.35-.05.49.06,3.05,2.57,7.97,8.06,8.23,8.75.04.12.04.25-.02.36-.05.11-.15.2-.27.24-2.98.97-3.99,1.58-5.97,4.37-1.03,1.45-1.87,3.06-2.68,4.62-.32.61-.64,1.24-.98,1.85-2.33,4.26-5.5,8.16-9.18,11.28-1.94,1.64-4.61,3.39-7.23,3.39Zm18.18-33.58c-.55,2.69-3.41,5.11-4.35,5.85-1.82,1.42-3.36,2.23-5.3,3.25l-.46.24c-6.38,3.34-10.86,7.41-13.31,12.09-.61,1.18-2.41,5.23.33,8.07.22.23.43.46.65.69.86.94,1.67,1.83,2.77,2.22,2.74.97,5.93-1.05,8.14-2.92,3.59-3.05,6.7-6.86,8.97-11.02.33-.6.66-1.23.97-1.83.83-1.59,1.68-3.23,2.75-4.73,1.97-2.77,3.17-3.59,5.86-4.51-1.02-1.31-4.35-5.02-7.01-7.39Zm7.3,7.81h0,0Z"/><path class="d" d="m40.49,63.57s-.07-.01-.09-.03c-2.28-1.74-4.39-3.72-6.27-5.89-.06-.06-.05-.16.02-.22.06-.06.16-.05.22.02,1.86,2.15,3.96,4.12,6.22,5.84.07.05.08.15.03.21-.03.04-.08.06-.12.06Z"/><path class="d" d="m43.07,60.54s-.07-.01-.1-.04c-2.14-1.8-4.16-3.78-6.01-5.87-.06-.06-.05-.16.01-.22.06-.06.16-.05.22.01,1.84,2.08,3.85,4.05,5.98,5.84.06.05.07.15.02.22-.03.04-.07.05-.12.05Z"/><path class="d" d="m45.82,57.83s-.08-.01-.11-.04c-2.02-1.97-4.04-3.98-6-5.98-.06-.06-.06-.16,0-.22.06-.06.16-.06.22,0,1.96,2,3.98,4.01,6,5.98.06.06.06.16,0,.22-.03.03-.07.05-.11.05Z"/><path class="d" d="m47.68,54.41s-.08-.01-.11-.04l-4.51-4.48c-.06-.06-.06-.16,0-.22.06-.06.16-.06.22,0l4.51,4.48c.06.06.06.16,0,.22-.03.03-.07.05-.11.05Z"/><path class="d" d="m49.41,51.15s-.07-.01-.1-.04c-.94-.86-1.87-1.76-2.76-2.67-.06-.06-.06-.16,0-.22.06-.06.16-.06.22,0,.89.91,1.82,1.8,2.75,2.66.06.06.07.15,0,.22-.03.03-.07.05-.11.05Z"/><path class="d" d="m51.26,47.66s-.07-.01-.1-.04c-.54-.46-1.06-.97-1.53-1.5-.06-.06-.05-.16.01-.22.06-.06.16-.05.22.01.46.53.96,1.02,1.5,1.47.06.05.07.15.02.22-.03.04-.07.05-.12.05Z"/><path class="e" d="m80.47,50.66c-5.91-4.95-23.17-23.48-29.94-32-2.87,2.08-5.68,5.18-8.04,7.63,10.15,9.1,25.4,24.86,31.17,31.45,2.25-2.15,4.49-4.29,6.81-7.07Z"/><path class="d" d="m73.67,58.19s-.01,0-.02,0c-.12,0-.24-.06-.32-.16-5.69-6.49-21.02-22.33-31.13-31.41-.09-.08-.15-.2-.15-.32,0-.12.04-.25.13-.34.32-.34.66-.69,1-1.04,2.15-2.26,4.59-4.82,7.1-6.64.2-.14.48-.11.63.09,6.89,8.67,24.2,27.17,29.88,31.93.19.16.22.45.06.65-2.33,2.8-4.62,4.99-6.84,7.11-.09.08-.2.13-.32.13Zm-30.51-31.93c9.96,8.98,24.67,24.17,30.54,30.81,2-1.91,4.06-3.9,6.13-6.36-6.06-5.23-22.3-22.58-29.38-31.42-2.32,1.75-4.6,4.14-6.62,6.27-.23.24-.45.47-.67.7Z"/><path class="e" d="m38.02,3.74c4.6.72,9.29,2.61,12.11,6.33,3.92,5.14,3.03,10.18-1.47,14.6-7.19,7.06-14.02,4.68-17.48.33-2.04-2.56-4.43-9.61-3.65-12.02.15-.46.61-.85,1.1-.82.38.02.68.31.95.58,2.2,2.25,4.5,4.4,6.88,6.47.28.25.59.5.95.58.62.13,1.2-.28,1.69-.68,1.05-.86,2.07-1.77,3.04-2.72.68-.67,1.38-1.52,1.19-2.45-.1-.52-.46-.94-.81-1.33-1.73-1.96-3.51-3.88-5.35-5.74-.41-.42-.85-.88-.95-1.45-.1-.58.3-1.88,1.78-1.65Z"/><path class="d" d="m39.33,29.6c-.2,0-.41,0-.61-.02-2.99-.18-5.86-1.75-7.89-4.31-1.98-2.49-4.62-9.72-3.72-12.45.22-.68.89-1.17,1.56-1.14.58.03.98.44,1.25.72,2.18,2.23,4.49,4.39,6.85,6.44.27.24.5.42.75.47.42.09.87-.23,1.31-.58,1.04-.85,2.05-1.75,3.01-2.7.57-.56,1.21-1.31,1.07-2.04-.08-.38-.36-.73-.7-1.12-1.71-1.95-3.51-3.87-5.33-5.72-.42-.43-.95-.96-1.08-1.7-.08-.46.06-1.18.55-1.68.3-.31.85-.64,1.75-.5h0c3.86.61,9.15,2.23,12.41,6.5,3.91,5.13,3.39,10.39-1.51,15.2-3.08,3.02-6.4,4.61-9.66,4.61Zm-10.73-16.99c-.25,0-.53.23-.62.51-.73,2.22,1.59,9.09,3.57,11.59,1.87,2.35,4.5,3.79,7.23,3.96,3.18.2,6.49-1.3,9.57-4.33,4.52-4.44,5.01-9.28,1.43-13.99-3.07-4.03-8.12-5.57-11.82-6.15-.41-.06-.74.02-.96.24-.26.27-.33.68-.3.88.08.45.48.85.83,1.21,1.84,1.86,3.64,3.79,5.37,5.76.33.38.78.89.91,1.55.23,1.16-.59,2.14-1.32,2.87-.98.96-2.01,1.89-3.07,2.75-.38.31-1.17.96-2.07.77-.5-.1-.88-.44-1.16-.68-2.38-2.06-4.7-4.25-6.9-6.49-.22-.23-.44-.43-.64-.45,0,0-.01,0-.02,0Z"/><path class="e" d="m81.84,69.19c-3.81-.73-7.67-2.43-9.89-5.61-3.08-4.4-2.15-8.58,1.77-12.15,6.27-5.7,11.89-3.52,14.62.2,1.61,2.19,3.35,8.15,2.6,10.13-.14.38-.55.69-.95.66-.32-.03-.56-.28-.77-.51-1.76-1.93-3.6-3.8-5.51-5.58-.23-.21-.47-.43-.78-.51-.51-.12-1.02.2-1.44.52-.91.69-1.8,1.42-2.64,2.19-.59.54-1.21,1.23-1.09,2.02.07.43.35.8.63,1.14,1.37,1.69,2.79,3.33,4.26,4.93.33.36.68.75.74,1.24.06.49-.32,1.56-1.55,1.33Z"/><path class="d" d="m82.18,69.68c-.13,0-.27-.01-.42-.04h0c-3.22-.61-7.6-2.12-10.18-5.8-3.1-4.43-2.47-8.84,1.84-12.75,2.89-2.63,5.96-3.86,8.87-3.56,2.49.25,4.83,1.65,6.43,3.84,1.57,2.15,3.51,8.3,2.66,10.56-.22.59-.83,1-1.42.95-.51-.04-.86-.43-1.07-.66-1.74-1.92-3.59-3.79-5.48-5.56-.2-.19-.39-.35-.57-.4-.32-.07-.71.18-1.06.44-.9.68-1.78,1.41-2.61,2.16-.49.44-1.03,1.03-.95,1.61.05.3.27.59.53.92,1.36,1.67,2.78,3.33,4.24,4.91.33.36.78.85.86,1.49.05.4-.1,1.03-.54,1.45-.22.21-.59.43-1.13.43Zm-.25-.94c.33.06.57.01.75-.16.21-.2.28-.51.26-.66-.04-.35-.35-.69-.63-.99-1.47-1.6-2.9-3.27-4.27-4.95-.27-.33-.64-.78-.72-1.36-.15-1.01.58-1.83,1.23-2.42.85-.78,1.75-1.52,2.67-2.22.34-.26,1.04-.79,1.82-.6.43.1.75.4.98.62,1.91,1.79,3.77,3.67,5.53,5.61.13.14.32.35.47.36.19.02.4-.15.48-.36.68-1.81-.99-7.57-2.54-9.7-1.45-1.98-3.56-3.24-5.79-3.46-2.65-.27-5.46.88-8.16,3.33-3.91,3.56-4.5,7.55-1.71,11.54,2.4,3.43,6.55,4.84,9.6,5.42h0Z"/><path class="d" d="m68.15,47.52s-.08-.01-.11-.04l-14.54-14.35c-.06-.06-.06-.16,0-.22.06-.06.16-.06.22,0l14.54,14.35c.06.06.06.16,0,.22-.03.03-.07.05-.11.05Z"/><path class="d" d="m70.37,45.57s-.08-.02-.11-.05c-4.64-5-9.49-9.93-14.4-14.66-.06-.06-.06-.16,0-.22.06-.06.16-.06.22,0,4.91,4.73,9.76,9.67,14.41,14.67.06.06.05.16,0,.22-.03.03-.07.04-.1.04Z"/><path class="e" d="m80.47,50.66c-5.91-4.95-23.17-23.48-29.94-32-2.87,2.08-5.68,5.18-8.04,7.63,10.15,9.1,25.4,24.86,31.17,31.45,2.25-2.15,4.49-4.29,6.81-7.07Z"/><path class="d" d="m73.67,58.19s-.01,0-.02,0c-.12,0-.24-.06-.32-.16-5.69-6.49-21.02-22.33-31.13-31.41-.09-.08-.15-.2-.15-.32,0-.12.04-.25.13-.34.32-.34.66-.69,1-1.04,2.15-2.26,4.59-4.82,7.1-6.64.2-.14.48-.11.63.09,6.89,8.67,24.2,27.17,29.88,31.93.19.16.22.45.06.65-2.33,2.8-4.62,4.99-6.84,7.11-.09.08-.2.13-.32.13Zm-30.51-31.93c9.96,8.98,24.67,24.17,30.54,30.81,2-1.91,4.06-3.9,6.13-6.36-6.06-5.23-22.3-22.58-29.38-31.42-2.32,1.75-4.6,4.14-6.62,6.27-.23.24-.45.47-.67.7Z"/><path class="e" d="m38.02,3.74c4.6.72,9.29,2.61,12.11,6.33,3.92,5.14,3.03,10.18-1.47,14.6-7.19,7.06-14.02,4.68-17.48.33-2.04-2.56-4.43-9.61-3.65-12.02.15-.46.61-.85,1.1-.82.38.02.68.31.95.58,2.2,2.25,4.5,4.4,6.88,6.47.28.25.59.5.95.58.62.13,1.2-.28,1.69-.68,1.05-.86,2.07-1.77,3.04-2.72.68-.67,1.38-1.52,1.19-2.45-.1-.52-.46-.94-.81-1.33-1.73-1.96-3.51-3.88-5.35-5.74-.41-.42-.85-.88-.95-1.45-.1-.58.3-1.88,1.78-1.65Z"/><path class="d" d="m39.33,29.6c-.2,0-.41,0-.61-.02-2.99-.18-5.86-1.75-7.89-4.31-1.98-2.49-4.62-9.72-3.72-12.45.22-.68.89-1.17,1.56-1.14.58.03.98.44,1.25.72,2.18,2.23,4.49,4.39,6.85,6.44.27.24.5.42.75.47.42.09.87-.23,1.31-.58,1.04-.85,2.05-1.75,3.01-2.7.57-.56,1.21-1.31,1.07-2.04-.08-.38-.36-.73-.7-1.12-1.71-1.95-3.51-3.87-5.33-5.72-.42-.43-.95-.96-1.08-1.7-.08-.46.06-1.18.55-1.68.3-.31.85-.64,1.75-.5h0c3.86.61,9.15,2.23,12.41,6.5,3.91,5.13,3.39,10.39-1.51,15.2-3.08,3.02-6.4,4.61-9.66,4.61Zm-10.73-16.99c-.25,0-.53.23-.62.51-.73,2.22,1.59,9.09,3.57,11.59,1.87,2.35,4.5,3.79,7.23,3.96,3.18.2,6.49-1.3,9.57-4.33,4.52-4.44,5.01-9.28,1.43-13.99-3.07-4.03-8.12-5.57-11.82-6.15-.41-.06-.74.02-.96.24-.26.27-.33.68-.3.88.08.45.48.85.83,1.21,1.84,1.86,3.64,3.79,5.37,5.76.33.38.78.89.91,1.55.23,1.16-.59,2.14-1.32,2.87-.98.96-2.01,1.89-3.07,2.75-.38.31-1.17.96-2.07.77-.5-.1-.88-.44-1.16-.68-2.38-2.06-4.7-4.25-6.9-6.49-.22-.23-.44-.43-.64-.45,0,0-.01,0-.02,0Z"/><path class="e" d="m81.84,69.19c-3.81-.73-7.67-2.43-9.89-5.61-3.08-4.4-2.15-8.58,1.77-12.15,6.27-5.7,11.89-3.52,14.62.2,1.61,2.19,3.35,8.15,2.6,10.13-.14.38-.55.69-.95.66-.32-.03-.56-.28-.77-.51-1.76-1.93-3.6-3.8-5.51-5.58-.23-.21-.47-.43-.78-.51-.51-.12-1.02.2-1.44.52-.91.69-1.8,1.42-2.64,2.19-.59.54-1.21,1.23-1.09,2.02.07.43.35.8.63,1.14,1.37,1.69,2.79,3.33,4.26,4.93.33.36.68.75.74,1.24.06.49-.32,1.56-1.55,1.33Z"/><path class="d" d="m82.18,69.68c-.13,0-.27-.01-.42-.04h0c-3.22-.61-7.6-2.12-10.18-5.8-3.1-4.43-2.47-8.84,1.84-12.75,2.89-2.63,5.96-3.86,8.87-3.56,2.49.25,4.83,1.65,6.43,3.84,1.57,2.15,3.51,8.3,2.66,10.56-.22.59-.83,1-1.42.95-.51-.04-.86-.43-1.07-.66-1.74-1.92-3.59-3.79-5.48-5.56-.2-.19-.39-.35-.57-.4-.32-.07-.71.18-1.06.44-.9.68-1.78,1.41-2.61,2.16-.49.44-1.03,1.03-.95,1.61.05.3.27.59.53.92,1.36,1.67,2.78,3.33,4.24,4.91.33.36.78.85.86,1.49.05.4-.1,1.03-.54,1.45-.22.21-.59.43-1.13.43Zm-.25-.94c.33.06.57.01.75-.16.21-.2.28-.51.26-.66-.04-.35-.35-.69-.63-.99-1.47-1.6-2.9-3.27-4.27-4.95-.27-.33-.64-.78-.72-1.36-.15-1.01.58-1.83,1.23-2.42.85-.78,1.75-1.52,2.67-2.22.34-.26,1.04-.79,1.82-.6.43.1.75.4.98.62,1.91,1.79,3.77,3.67,5.53,5.61.13.14.32.35.47.36.19.02.4-.15.48-.36.68-1.81-.99-7.57-2.54-9.7-1.45-1.98-3.56-3.24-5.79-3.46-2.65-.27-5.46.88-8.16,3.33-3.91,3.56-4.5,7.55-1.71,11.54,2.4,3.43,6.55,4.84,9.6,5.42h0Z"/><path class="d" d="m68.15,47.52s-.08-.01-.11-.04l-14.54-14.35c-.06-.06-.06-.16,0-.22.06-.06.16-.06.22,0l14.54,14.35c.06.06.06.16,0,.22-.03.03-.07.05-.11.05Z"/><path class="d" d="m70.37,45.57s-.08-.02-.11-.05c-4.64-5-9.49-9.93-14.4-14.66-.06-.06-.06-.16,0-.22.06-.06.16-.06.22,0,4.91,4.73,9.76,9.67,14.41,14.67.06.06.05.16,0,.22-.03.03-.07.04-.1.04Z"/><g class="g"><path class="d" d="m59.49,43.1c-.55-.54-1.21-.23-1.73.19-.53.36-1.06.73-1.56,1.13-1.5,1.14-2.69,2.64-3.61,4.28-1.46,2.73-2.74,5.57-4.49,8.14-1.64,2.78-2.73,4.3-4.95,6.44-1.33,1.23-2.3,2.01-4.27,3,0,0,0,0,0,0-.5.19-1.01.36-1.52.5-.94.23-.78.2-1.42.25-1.03.03-.9-.17-2.13-.23-1.05.1-1.16,1.67-.13,1.94.77.15,1.54.32,2.33.31,1.11-.05,2.2-.34,3.25-.71,1.69-.63,3.13-1.75,4.52-2.87,5.02-4.09,7.74-10.14,10.73-15.71,1.09-1.93,1.63-2.73,3.35-4.11.15-.11.83-.61,1.03-.72.23-.16.51-.26.66-.5.33-.37.26-.97-.08-1.32Z"/></g><g class="g"><path class="d" d="m81.53,17.77c-.72-.53-.34-.08-.96-.64-.51-.46-.9-.91-.93-.98-.25-.32-.42-.73-.74-.98-.76-.63-1.84.33-1.34,1.17.78,1.12.84,1.36,1.85,2.34.41.33.87.71,1.42.75.85,0,1.3-1.07.69-1.67Z"/></g><g class="g"><path class="d" d="m71.47,52.4c-.65-.68-1.22-1.44-1.91-2.08-1.13-1.11-2.22-2.26-3.3-3.42-1.07-1.25-2.13-2.51-3.31-3.66-.98-1.03-2.24-1.99-2.72-2.42-1.35-1.31-2.68-2.66-4.01-3.99-2.32-2.4-4.55-4.89-7.03-7.13-.79-.7-1.56-1.41-2.4-2.03-.3-.2-.58-.51-.96-.54-1.05-.18-1.56,1.3-.63,1.83,2.12,1.46,5.16,4.46,7.44,6.96,1.59,1.63,3.19,3.24,4.71,4.93.54.56,1.02,1.17,1.58,1.71.95.84,1.91,1.67,2.78,2.59,2.22,2.37,4.33,4.85,6.67,7.11.5.5.94,1.04,1.4,1.57,0,0,.01.02.02.03.29.44.9.67,1.38.42.79-.28.89-1.39.29-1.9Z"/></g></g></svg>