<?xml version="1.0" encoding="UTF-8"?><svg id="b" xmlns="http://www.w3.org/2000/svg" viewBox="0 0 58.95 80.74"><defs><style>.d{fill:#acd4f7;}.d,.e,.f{stroke:#282828;stroke-miterlimit:10;stroke-width:2px;}.e{fill:#fff;}</style></defs><g id="c"><path class="f" d="m21.94,12.99c-.26,0-.48-.19-.52-.45-.42-2.99.37-6.56,1.91-8.69,1.34-1.84,3.15-2.85,5.12-2.85,4.06,0,7.87,1.37,8.25,11.29.01.29-.22.54-.51.55-.28,0-.54-.22-.55-.51-.36-9.48-3.75-10.28-7.2-10.28-1.64,0-3.11.84-4.26,2.42-1.14,1.57-2.16,4.72-1.72,7.92.04.29-.16.55-.45.6-.02,0-.05,0-.07,0Z"/><rect class="e" x="1.53" y="9.84" width="55.89" height="69.38"/><path class="f" d="m57.42,79.74H1.53c-.29,0-.53-.24-.53-.53V9.84c0-.29.24-.53.53-.53h55.89c.29,0,.53.24.53.53v69.38c0,.29-.24.53-.53.53Zm-55.37-1.05h54.84V10.36H2.05v68.33Z"/><path class="d" d="m44.27,7.63c-1.98-.12-28.34-.17-30.48-.11,0,7.82,2.61,9.15,8.87,9.39,9.74.36,15.75.32,18.23-.92,3.13-1.57,3.93-4.67,3.38-8.36Z"/><path class="f" d="m31.17,17.63c-2.45,0-5.29-.08-8.53-.2-6.49-.24-9.38-1.73-9.38-9.91,0-.28.23-.52.51-.53,2.04-.06,28.56,0,30.53.11.25.01.45.2.49.45.65,4.37-.59,7.36-3.67,8.91-1.73.87-5.04,1.17-9.95,1.17ZM14.32,8.04c.1,6.85,2.24,8.11,8.36,8.34,9.33.35,15.59.33,17.97-.87,2.53-1.27,3.59-3.75,3.15-7.38-3.74-.1-25.47-.14-29.49-.1Z"/><path class="f" d="m4.8,18.5c-.1,0-.18-.08-.18-.18l-.02-6.01c0-.1.08-.18.18-.18h0c.1,0,.18.08.18.18l.02,6.01c0,.1-.08.18-.18.18h0Z"/><path class="f" d="m7.24,14.63h0c-.1,0-.17-.08-.17-.18l.02-2.25c0-.1.08-.17.18-.17h0c.1,0,.17.08.17.18l-.02,2.25c0,.1-.08.17-.18.17Z"/><path class="f" d="m54.41,76.41h0c-.1,0-.18-.08-.17-.18l.02-4.49c0-.1.08-.17.18-.17h0c.1,0,.18.08.17.18l-.02,4.49c0,.1-.08.17-.18.17Z"/><path class="f" d="m14.28,33.42h0c-.19,0-.36-.11-.45-.27l-2.85-5.06c-.14-.25-.05-.57.2-.72.25-.14.58-.05.72.2l2.41,4.28,2.52-4.15c.15-.25.48-.33.72-.18.25.15.33.48.18.72l-2.98,4.92c-.1.16-.27.25-.45.25Z"/><path class="f" d="m45.49,30.09h-21.97c-.1,0-.18-.08-.18-.18s.08-.18.18-.18h21.97c.1,0,.18.08.18.18s-.08.18-.18.18Z"/><path class="f" d="m14.28,47.59h0c-.19,0-.36-.1-.45-.27l-2.85-5.06c-.14-.25-.05-.58.2-.72.25-.14.58-.05.72.2l2.41,4.28,2.52-4.15c.15-.25.48-.33.72-.18.25.15.33.48.18.72l-2.98,4.92c-.1.16-.27.25-.45.25Z"/><path class="f" d="m45.49,44.26h-21.97c-.1,0-.18-.08-.18-.18s.08-.18.18-.18h21.97c.1,0,.18.08.18.18s-.08.18-.18.18Z"/><path class="f" d="m13.93,61.75h0c-.19,0-.36-.1-.45-.27l-2.85-5.06c-.14-.25-.05-.58.2-.72.25-.14.57-.05.72.2l2.41,4.28,2.52-4.15c.15-.25.48-.33.72-.18.25.15.33.48.18.72l-2.98,4.92c-.1.16-.27.25-.45.25Z"/><path class="f" d="m45.14,58.43h-21.97c-.1,0-.18-.08-.18-.18s.08-.18.18-.18h21.97c.1,0,.18.08.18.18s-.08.18-.18.18Z"/></g></svg>