<?xml version="1.0" encoding="UTF-8"?><svg id="b" xmlns="http://www.w3.org/2000/svg" viewBox="0 0 137.03 103.48"><defs><style>.d,.e,.f{stroke-width:0px;}.e{fill:#fff;}.f{fill:#acd4f7;}</style></defs><g id="c"><path class="d" d="m31.36,91.18c-2.27,0-4.39-.9-5.81-2.46-1.25-1.38-1.84-3.2-1.66-5.12l.25-25.42c0-.4.33-.72.73-.72h0c.4,0,.73.33.72.74l-.25,25.45s0,.04,0,.07c-.16,1.54.29,2.93,1.28,4.03,1.13,1.24,2.89,1.98,4.73,1.98h.02l27.71-.07h0c.4,0,.73.33.73.73,0,.4-.33.73-.73.73l-27.71.07h-.02Z"/><path class="d" d="m31.29,67.39c-.22,0-.44-.1-.58-.29l-5.81-7.73-5.58,7.64c-.24.33-.7.4-1.02.16-.33-.24-.4-.7-.16-1.02l6.16-8.44c.14-.19.35-.3.59-.3.23,0,.45.11.59.29l6.4,8.52c.24.32.18.78-.15,1.02-.13.1-.29.15-.44.15Z"/><rect class="e" x="72.49" y="45.84" width="52.59" height="56.91"/><path class="d" d="m125.08,103.48h-52.59c-.4,0-.73-.33-.73-.73v-56.91c0-.4.33-.73.73-.73h52.59c.4,0,.73.33.73.73v56.91c0,.4-.33.73-.73.73Zm-51.86-1.46h51.13v-55.45h-51.13v55.45Z"/><polygon class="e" points="98.78 14.68 61.27 53.37 136.3 53.37 98.78 14.68"/><path class="d" d="m136.3,54.1H61.27c-.29,0-.56-.18-.67-.45-.11-.27-.06-.58.15-.79L98.26,14.17c.28-.28.77-.28,1.05,0l37.51,38.69c.2.21.26.52.15.79-.11.27-.38.45-.67.45Zm-73.3-1.46h71.58L98.78,15.73l-35.79,36.91Z"/><rect class="f" x="91.41" y="65.71" width="14.75" height="13.65"/><path class="d" d="m106.15,80.1h-14.75c-.4,0-.73-.33-.73-.73v-13.65c0-.4.33-.73.73-.73h14.75c.4,0,.73.33.73.73v13.65c0,.4-.33.73-.73.73Zm-14.01-1.46h13.28v-12.19h-13.28v12.19Z"/><path class="d" d="m125.08,96.03h0c-17.34-.22-34.92-.35-52.25-.37-.13,0-.24-.11-.24-.24s.11-.24.24-.24h0c17.33.02,34.91.14,52.25.37.13,0,.24.11.24.25,0,.13-.11.24-.24.24Z"/><path class="e" d="m30.7,1.39C22.33-.72,12.92,2.41,7.27,8.51,1.61,14.62-.42,23.31,1.34,31.19c2.01,9,11.26,15.87,18.39,16.68,11.59,1.33,21.1-3.86,24.06-7.2,5.45-6.15,7.92-14.64,5.9-22.38-2.02-7.74-8.74-14.33-19-16.91Z"/><path class="d" d="m23.42,48.82c-1.23,0-2.49-.07-3.76-.21-7.52-.86-16.96-8-19.02-17.25-1.86-8.33.48-17.27,6.1-23.34C12.76,1.51,22.46-1.44,30.88.68h0c10.04,2.53,17.34,9.04,19.53,17.43,2.02,7.73-.31,16.57-6.06,23.05-3.05,3.43-11.21,7.65-20.93,7.65ZM25.28,1.46c-6.45,0-13.03,2.74-17.48,7.55C2.5,14.73.3,23.17,2.05,31.04c1.93,8.65,10.74,15.31,17.76,16.12,11.84,1.36,20.9-4.1,23.43-6.96,5.44-6.13,7.63-14.45,5.74-21.72-2.05-7.87-8.96-13.99-18.47-16.38h0c-1.71-.43-3.47-.64-5.24-.64Z"/><rect class="d" x="1.94" y="24.16" width="47.29" height=".49" transform="translate(.65 49.49) rotate(-88.82)"/><rect class="d" x="26.06" y="-4.92" width=".49" height="47.13" transform="translate(7.18 44.6) rotate(-88.95)"/><rect class="d" x="24.86" y="8.44" width=".49" height="47.13" transform="translate(-7.35 56.52) rotate(-88.95)"/><path class="d" d="m25.77,47.98s-.05,0-.08-.01c-5.35-1.79-9.43-5.83-12.11-12.01-2.89-6.66-3.45-13.76-1.56-20C14.07,9.14,19.17,3.35,25.63.47c.07-.03.15-.03.21,0,9.13,4.85,13.57,12.04,13.57,21.98,0,15.48-4.56,20.73-13.53,25.5-.04.02-.07.03-.11.03Zm-.04-47.02c-6.29,2.84-11.24,8.49-13.24,15.13-1.85,6.13-1.31,13.12,1.54,19.67,2.61,6.01,6.56,9.95,11.72,11.71,8.74-4.66,13.18-9.84,13.18-25.02,0-9.71-4.32-16.74-13.2-21.49Z"/></g></svg>