<?xml version="1.0" encoding="UTF-8"?><svg id="b" xmlns="http://www.w3.org/2000/svg" viewBox="0 0 66.9 77.74"><defs><style>.d,.e,.f{stroke-width:0px;}.e{fill:#fff;}.f{fill:#acd4f7;}</style></defs><g id="c"><path class="e" d="m12.08,33.73c-.5-10.58-.53-21.97-.53-32.06,0,0,44.99-.1,45.59.14,0,9.96-.4,21.55-.06,31.92,0,0-30.12.39-45,0Z"/><path class="d" d="m30.32,34.42c-6.67,0-13.32-.04-18.25-.17-.28,0-.5-.23-.51-.5-.49-10.38-.53-21.54-.53-32.09,0-.29.24-.53.53-.53,16.84-.04,45.18-.06,45.79.18.2.08.33.27.33.49,0,3.43-.05,6.98-.1,10.74-.09,7.06-.19,14.37.03,21.16,0,.14-.05.28-.15.38-.1.1-.23.16-.37.16-.2,0-13.53.17-26.77.17Zm-17.73-1.21c13.75.33,39.88.04,43.95,0-.2-6.66-.11-13.78-.02-20.67.05-3.58.09-6.97.1-10.24-3.93-.16-32.58-.13-44.54-.1,0,10.21.05,20.98.51,31.02Z"/><path class="d" d="m14.96,31.28c-.09,0-.17-.08-.18-.17l-.22-8.58c0-.1.07-.18.17-.18h0c.1,0,.17.08.18.17l.22,8.58c0,.1-.07.18-.17.18h0Z"/><path class="d" d="m17.46,31.2c-.1,0-.17-.08-.18-.17l-.06-4.65c0-.1.08-.18.17-.18.08,0,.18.08.18.17l.06,4.65c0,.1-.08.18-.17.18h0Z"/><path class="f" d="m27.98.53c.15,2.76.18,5.53.23,8.49,1.37,0,13.12.2,13.12.2,0,0-.22-5.67-.22-8.59l-13.13-.1Z"/><path class="d" d="m41.32,9.74h0c-.12,0-11.76-.2-13.11-.2-.29,0-.52-.23-.53-.52l-.02-1.26c-.04-2.5-.08-4.85-.2-7.21,0-.15.04-.29.15-.39.1-.1.24-.16.38-.16h0l13.13.1c.29,0,.52.24.52.53,0,2.87.21,8.51.22,8.56,0,.14-.05.29-.15.39-.1.1-.24.16-.38.16Zm-12.6-1.25c2.28.02,9.9.15,12.05.19-.05-1.4-.18-5.12-.2-7.53l-12.05-.09c.11,2.19.14,4.38.18,6.69v.74Z"/><path class="d" d="m21.52,67.86c-.47,0-.95-.02-1.42-.07-1.57-.16-2.66-.66-3.32-1.53-1.16-1.51-.64-3.69.45-4.98.73-.86,3.12-1.59,6.18-2.47,1.05-.3,1.96-.56,2.38-.74.27-.12.58,0,.69.28.11.27,0,.58-.28.69-.48.21-1.38.46-2.51.78-1.9.54-5.09,1.45-5.66,2.13-.83.98-1.21,2.62-.42,3.65.48.62,1.33.99,2.59,1.12,2.75.29,5.56-.41,8.28-1.09.53-.13,1.06-.26,1.59-.39,3.24-.76,7.01-1.34,10.35.17.27.12.38.43.26.7-.12.27-.43.38-.7.26-3.06-1.38-6.61-.83-9.68-.11-.53.12-1.05.25-1.58.39-2.35.58-4.77,1.18-7.22,1.18Z"/><path class="d" d="m16.56,64.15s-.08,0-.12-.01c-.57-.13-1.02-.22-1.42-.29-2.28-.43-2.35-.52-5.88-5.09-.59-.77-1.28-1.66-2.11-2.71-1.94-2.48-4.29-2.97-5.34-2.53-.49.2-.69.58-.62,1.13.04.29-.16.55-.45.59-.29.04-.55-.17-.59-.45-.13-1.02.34-1.85,1.26-2.24,1.59-.67,4.44.1,6.58,2.85.82,1.05,1.52,1.95,2.11,2.72q3.35,4.34,5.24,4.7c.39.07.87.16,1.46.3.28.07.46.35.39.63-.06.24-.27.41-.51.41Z"/><path class="d" d="m20.29,60.83c-.09,0-.19-.03-.28-.08-.92-.57-2.05-.96-3.25-1.36-2.1-.72-4.49-1.53-6.33-3.59-.54-.6-.92-1.12-1.28-1.63-.74-1.02-1.38-1.9-3.1-3.04-.24-.16-.31-.49-.15-.73.16-.24.49-.31.73-.15,1.87,1.25,2.6,2.25,3.37,3.3.35.48.72.98,1.22,1.54,1.66,1.85,3.8,2.59,5.88,3.3,1.25.43,2.44.83,3.46,1.46.25.15.32.48.17.73-.1.16-.27.25-.45.25Z"/><path class="e" d="m66.25,50.17s-13.67,3.19-16.3,2.64c-3.77-.79-6.76-1.6-10.52-.37-1.94.64-4.39,2.17-6.14,3.24-3.49,2.14-3.27,1.78-5.59,2.61-2.88-.8-6.23-1.81-8.9-3.39-3.44-2.03-6.89-4.42-7.91-5.02-2.69-1.59-3.42-.1-4.54.82-1.42-.95-4.93-.97-4.62,1.83.09.85-1.08.47-1.18,2.2-.17,2.89,6.33,9.66,11.62,13.84,5.01,2.51,13.35,7.01,20.51,8.6,3.31.73,16.7-5.25,25.12-8.22,4.93-1.74,3.66-.48,7.36-1.16,1.73-1.7,1.09-17.61,1.09-17.61Z"/><path class="d" d="m33.33,77.74c-.29,0-.54-.02-.76-.07-6.43-1.43-13.9-5.22-18.84-7.73-.64-.32-1.24-.63-1.79-.91-.03-.02-.06-.04-.09-.06C6.81,65-.18,57.94.02,54.68c.07-1.24.66-1.67,1.01-1.92.07-.05.15-.11.18-.14,0,0,0-.02,0-.04-.12-1.11.27-2.01,1.12-2.52,1.13-.69,2.85-.56,3.96,0,.07-.07.15-.14.22-.21.91-.87,2.05-1.95,4.65-.42.37.22,1.04.66,1.9,1.22,1.6,1.05,3.79,2.49,6.01,3.8,2.48,1.46,5.6,2.45,8.62,3.29.43-.15.77-.26,1.07-.35,1.15-.37,1.58-.51,4.26-2.15l.31-.19c1.71-1.05,4.05-2.49,5.94-3.1,3.61-1.18,6.54-.55,9.94.17l.85.18c2.07.43,12.3-1.75,16.08-2.63.15-.04.31,0,.44.09.12.1.2.24.21.4.11,2.69.55,16.23-1.25,18-.08.07-.17.12-.27.14-1.53.28-2.25.24-2.88.21-.85-.05-1.52-.08-4.39.93-2.34.82-5.01,1.86-7.84,2.97-7.06,2.74-13.76,5.35-16.8,5.35Zm-20.88-9.63c.55.27,1.13.57,1.75.89,4.9,2.49,12.3,6.25,18.59,7.65,2.23.5,10.05-2.55,16.95-5.23,2.84-1.1,5.52-2.15,7.87-2.98,3.07-1.08,3.83-1.04,4.8-.99.55.03,1.16.06,2.45-.16.96-1.44,1.09-10.17.87-16.47-2.92.67-13.48,3.01-15.91,2.49l-.85-.18c-3.39-.72-6.06-1.3-9.39-.2-1.77.58-4.05,1.98-5.72,3l-.31.19c-2.79,1.71-3.29,1.87-4.49,2.25-.32.1-.7.22-1.2.4-.1.04-.21.04-.32.01-3.14-.87-6.4-1.89-9.03-3.44-2.24-1.32-4.44-2.77-6.05-3.82-.84-.55-1.51-.99-1.85-1.19-1.92-1.13-2.54-.54-3.39.27-.17.17-.35.34-.55.5-.18.15-.43.16-.63.03-.76-.51-2.32-.7-3.18-.17-.49.3-.7.79-.62,1.5.07.67-.33.96-.6,1.16-.29.21-.53.39-.58,1.13-.15,2.49,5.75,8.91,11.38,13.36Z"/><path class="d" d="m24.76,66.44c-1.83,0-3.29-.48-4.41-1.93-1.22-1.58-.38-2.98.6-4.14.73-.86,3.12-1.59,6.18-2.47,1.05-.3,1.96-.56,2.38-.74.27-.12.58,0,.69.28.11.27,0,.58-.28.69-.48.21-1.38.46-2.51.78-1.9.54-5.09,1.45-5.66,2.13-1.07,1.27-1.21,1.98-.57,2.82,1.64,2.13,4.39,1.63,8.55.87,2.61-.48,5.87-1.07,9.6-1.07.29,0,.53.24.53.53s-.24.53-.53.53c-3.63,0-6.7.56-9.41,1.06-1.96.36-3.68.67-5.16.67Z"/><path class="d" d="m21.72,65.63c-.08,0-.16-.02-.23-.05-4.93-2.41-9.43-5.31-13-8.37-.2-.17-.43-.39-.7-.63-1.46-1.34-4.17-3.82-6.02-3.09-.27.11-.58-.03-.68-.3-.11-.27.03-.58.3-.68,2.47-.98,5.38,1.7,7.12,3.29.26.23.48.44.67.61,3.5,3.01,7.92,5.85,12.77,8.23.26.13.37.44.24.71-.09.19-.28.3-.47.3Z"/><path class="d" d="m21.72,60.83s-.08,0-.12-.01c-3.94-.95-8.05-4.14-11.36-6.7-1.67-1.3-3.12-2.42-4.23-3.02-.26-.14-.35-.46-.21-.71.14-.26.46-.35.71-.21,1.19.64,2.67,1.79,4.38,3.12,3.22,2.5,7.23,5.61,10.96,6.51.28.07.46.35.39.64-.06.24-.27.4-.51.4Z"/><path class="d" d="m62.76,65.09s-.02,0-.03,0c-.1-.02-.16-.11-.14-.21.52-2.62.7-5.3.54-7.96,0-.1.07-.18.16-.19.11-.01.18.07.19.16.16,2.7-.02,5.4-.55,8.05-.02.08-.09.14-.17.14Z"/><path class="d" d="m59.96,65.27s-.04,0-.06,0c-.09-.03-.14-.13-.11-.22.31-.91.47-1.86.47-2.83,0-.1.08-.18.18-.18h0c.1,0,.18.08.18.18,0,1-.17,1.99-.49,2.94-.03.07-.09.12-.17.12Z"/></g></svg>